<?xml version="1.0" encoding="utf-8"?>
<!-- Generator: Adobe Illustrator 23.0.5, SVG Export Plug-In . SVG Version: 6.00 Build 0)  -->
<svg version="1.1" id="Layer_1" xmlns="http://www.w3.org/2000/svg" xmlns:xlink="http://www.w3.org/1999/xlink" x="0px" y="0px"
	 viewBox="0 0 164 54" style="enable-background:new 0 0 164 54;" xml:space="preserve">
<g>
	<path d="M91.7,1.7c0.5,0.2,0.9,0.5,1.1,1C93,3.5,92.7,4.3,92,4.5c-0.7,0.3-1.5-0.1-1.8-0.8s0-1.5,0.8-1.8c0.1-0.1,0.2-0.1,0.4-0.2
		C91.4,1.7,91.6,1.7,91.7,1.7z"/>
	<path d="M95.8,26.2c0.4-0.8,0.6-1.6,0.5-2.4c-0.1-1-0.6-1.7-1.5-2.1c-1.2-0.6-2.4-1.2-3.6-1.8c-0.2-0.1-0.3-0.2-0.5-0.4
		c0.2,0,0.4,0,0.6,0c0.6,0,1.2,0,1.7-0.1c0.1,0,0.2-0.2,0.4-0.3c-0.1-0.1-0.2-0.3-0.3-0.4c-0.2-0.1-0.5-0.2-0.7-0.3
		c-2.6-1-4.7-2.6-6.5-4.7c-0.9-1.1-1.6-2.2-1.7-3.6c-0.3-2.7,1.9-4.8,3.9-5.3c0.1,0,0.1,0,0.2,0C88.2,5,88.1,5.1,88,5.2
		c-0.8,1.1-1.6,2.3-1.8,3.8c-0.2,1.2,0.4,2.2,1.5,2.6c0.6-0.9,1.1-1.9,1.7-2.8s1.1-1.9,1.7-2.9c5.4,9.4,10.7,18.7,16.2,28.2
		c-0.2-0.1-0.3-0.1-0.4-0.2c-5.2-2.9-10.8-4.5-16.8-4.4c-5.1,0.1-9.7,1.6-14,4.3c-0.1,0.1-0.2,0.2-0.5,0.3c0.1-0.2,0.1-0.3,0.2-0.4
		c1.7-2.9,3.7-5.5,6.5-7.5c2.1-1.5,4.4-2.3,6.9-2.3c2.2,0.1,4.1,0.8,6,1.9c0.1,0.1,0.3,0.2,0.4,0.2C95.7,26.2,95.7,26.2,95.8,26.2z"
		/>
	<path d="M73.5,11.4c-0.1,1.2-0.3,2.3-0.4,3.5c0,0.4-0.1,0.8-0.1,1.3c0,0.4-0.3,0.4-0.6,0.4c-0.3,0-0.4,0-0.5-0.4
		c-0.1-0.7-0.2-1.3-0.4-2c-0.2-0.8-0.7-1.4-1.5-1.7c-1.5-0.7-3.1-0.8-4.7-0.7c-3.6,0.3-5.7,2.6-6.3,6.1c-0.4,2.2-0.3,4.3,0.4,6.4
		c1.3,3.8,4.2,5.8,8.2,5.7c0.4,0,0.9-0.1,1.3-0.2c0.7-0.2,1.1-0.6,1.2-1.3c0.1-1.3,0.1-2.6,0.1-3.9c0-0.7-0.4-1.1-1.1-1.2
		c-0.6-0.1-1.2-0.2-1.8-0.3c-0.4,0-0.5-0.2-0.5-0.6s0.2-0.4,0.5-0.4c2,0,4.1,0,6.1,0.1c0.4,0,0.8,0,1.3-0.1c0,0.2,0,0.4,0,0.6
		c0,0.1-0.2,0.3-0.3,0.3c-1.3,0.2-1.6,0.4-1.6,2c0,1,0,2,0,3c0,0.5,0.1,0.9,0.6,1.1c0.1,0,0.2,0.3,0.2,0.4c0,0.2-0.2,0.4-0.3,0.4
		c-0.9,0.3-1.9,0.5-2.8,0.7c-2.5,0.5-5,0.6-7.5,0.1c-2.4-0.5-4.4-1.6-5.8-3.7c-1-1.4-1.4-3-1.6-4.6c-0.2-2.1-0.1-4.1,0.8-6
		c1.1-2.5,3-4,5.5-5c2.3-0.9,4.7-1,7.1-0.7C70.7,11,72.1,11.2,73.5,11.4z"/>
	<path d="M30.8,30.7c0-0.3,0-0.5,0-0.8c0.7-0.1,1.5-0.2,2.2-0.3c0.9-0.2,1.2-0.5,1.3-1.4c0.1-0.7,0.1-1.4,0.1-2.1
		c0-3.8,0-7.6,0-11.4c0-0.4,0-0.9-0.1-1.3c0-0.5-0.3-0.9-0.9-1c-0.4-0.1-0.9-0.2-1.3-0.3c-0.3,0-0.5-0.1-0.5-0.5s0.3-0.4,0.6-0.4
		c1.6,0,3.1,0.1,4.7,0.1c2.4,0,4.7,0,7.1,0c0.6,0,1.1-0.1,1.7-0.1c0,0.3-0.1,0.5-0.1,0.7c-0.1,1-0.3,2.1-0.4,3.1
		c-0.1,0.8-0.2,0.8-1,0.7c-0.1-0.6-0.2-1.1-0.3-1.7c-0.2-1-0.6-1.4-1.6-1.4c-1.5-0.1-3.1,0-4.6,0c-0.4,0-0.6,0.3-0.6,0.8
		c0,1.7,0,3.4,0,5.1c0,0.4,0,0.8,0,1.2c0,0.3,0.1,0.4,0.4,0.4c1.5,0,3,0,4.5-0.1c0.6,0,0.9-0.3,1.1-0.8c0.1-0.3,0.2-0.7,0.3-1
		c0.1-0.4,0.3-0.4,0.8-0.3c0.4,0.1,0.2,0.3,0.2,0.5c0,1.6-0.1,3.3-0.1,4.9c0,0.2,0,0.3,0,0.5c-0.2,0-0.3,0.1-0.5,0.1
		c-0.3,0-0.5,0-0.6-0.5c-0.2-1.6-0.5-1.9-2.1-1.9c-1.2,0-2.3,0-3.5,0c-0.4,0-0.5,0.1-0.5,0.5c0,1.9,0,3.8,0,5.7c0,0.2,0,0.4,0.1,0.6
		c0.1,0.6,0.4,1,1.1,1c1.6,0.1,3.2,0.1,4.8,0.1c0.7,0,1.4-0.3,1.8-0.9c0.5-0.8,1-1.6,1.5-2.5c0.1-0.3,0.2-0.4,0.6-0.3
		c0.3,0.1,0.5,0.2,0.4,0.6c-0.4,1.2-0.7,2.4-1.1,3.6c-0.2,0.5-0.5,0.8-1.1,0.8c-1.9,0-3.8,0-5.7,0c-2,0-4.1,0-6.1,0
		C32.4,30.7,31.6,30.7,30.8,30.7z"/>
	<path d="M125.1,25.7c0.7,0.2,0.8,0.4,0.5,1c-0.5,1.1-1.1,2.1-1.6,3.1c-0.2,0.4-0.6,0.6-1.1,0.8c-2.9,0.8-5.7,0.9-8.6,0
		c-3.4-1-5.5-3.3-6.2-6.7c-0.6-2.6-0.5-5.1,0.7-7.6c1.3-2.6,3.4-4.2,6.1-5c2.3-0.7,4.6-0.7,7-0.4c1,0.1,2.1,0.3,3.1,0.4
		c0.1,0,0.2,0,0.3,0.1c-0.1,0.9-0.2,1.9-0.3,2.8c-0.1,0.5-0.1,1-0.1,1.5c0,0.6-0.1,0.6-0.7,0.6c-0.1,0-0.1,0-0.2,0
		c-0.1-0.4-0.1-0.8-0.2-1.2c-0.2-1.4-0.9-2.4-2.3-2.8c-1.9-0.5-3.8-0.7-5.7-0.1c-2,0.6-3.3,2-4,4c-1.1,3.1-1.1,6.2,0.3,9.2
		c1.2,2.6,3.4,4,6.2,4.3c0.8,0.1,1.6,0.1,2.4,0c1.3-0.1,2.4-0.8,3.1-1.9C124.2,27.1,124.6,26.4,125.1,25.7z"/>
	<path d="M137.5,30.7c-0.2-0.7-0.1-0.8,0.5-0.9c0.5-0.1,1-0.1,1.5-0.2c0.7-0.1,1.1-0.5,1.1-1.2c0-1.8,0.1-3.6,0-5.4
		c0-0.5-0.3-1-0.5-1.5c-1.2-2.4-2.5-4.7-3.8-7.1c-0.7-1.3-1.6-2.1-3.1-2.2c-0.7,0-0.7-0.2-0.5-0.8c0.8,0,1.5,0,2.3,0
		c1.6,0,3.1,0,4.7-0.1c0.3,0,0.5,0,0.5,0.4c0,0.3,0,0.5-0.4,0.5c-0.2,0-0.5,0.1-0.7,0.1c-0.5,0.1-0.6,0.3-0.4,0.8
		c0.2,0.5,0.4,0.9,0.7,1.4c1.1,2,2.1,4,3.2,6.1c0.2,0.4,0.3,0.4,0.5,0c1.2-2.2,2.4-4.4,3.6-6.6c0.1-0.2,0.1-0.3,0.2-0.5
		c0.2-0.6,0.1-1-0.5-1.1c-0.4-0.1-0.9-0.2-1.3-0.2c-0.4,0-0.4-0.3-0.4-0.5c0-0.3,0.2-0.4,0.5-0.4c1.7,0,3.3,0.1,5,0.1
		c0.4,0,0.8,0,1.2-0.1c0.2,0,0.4,0.1,0.4,0.3s0.1,0.5-0.3,0.6c-0.3,0-0.5,0.1-0.8,0.2c-0.8,0.1-1.4,0.5-1.9,1.2
		c-0.6,0.9-1.2,1.7-1.7,2.7c-1.1,1.9-2.2,3.7-3.2,5.6c-0.2,0.4-0.4,1-0.4,1.5c0,1.7,0,3.3,0.1,5c0,1,0.3,1.3,1.3,1.5
		c0.4,0.1,0.8,0.1,1.3,0.2c0.3,0,0.4,0.1,0.4,0.4s0,0.5-0.4,0.5c-0.7-0.1-1.3-0.1-2-0.1c-2,0-4.1,0-6.1,0.1
		C137.7,30.7,137.6,30.7,137.5,30.7z"/>
	<path d="M20.4,30.8c-2.5,0-5.1-0.1-7.7-0.1c-1.5,0-3,0-4.5,0.1c-0.3,0-0.5,0-0.5-0.3s0-0.5,0.4-0.6c0.5,0,1-0.1,1.5-0.2
		c0.9-0.2,1.2-0.5,1.3-1.5c0-1.1,0.1-2.2,0.1-3.3c0-3.2,0-6.5,0-9.7c0-0.6,0-1.1-0.1-1.7c-0.1-0.6-0.3-0.9-0.9-1.1
		c-0.5-0.1-1-0.2-1.5-0.3c-0.4,0-0.3-0.2-0.3-0.5s0.1-0.4,0.4-0.4c0.6,0,1.3,0.1,1.9,0.1c1.8,0,3.5,0,5.3-0.1c0.3,0,0.5,0,0.5,0.4
		c0,0.3-0.1,0.5-0.5,0.5s-0.9,0.1-1.3,0.3c-0.5,0.1-0.7,0.4-0.8,0.9c0,1.9-0.1,3.8-0.1,5.7c0,2.8,0,5.5,0,8.3c0,0.2,0,0.4,0,0.5
		c0.1,1.1,0.4,1.5,1.5,1.5c1.4,0.1,2.8,0.1,4.2,0.1c0.8,0,1.5-0.3,1.9-1c0.6-1.1,1.3-2.2,1.8-3.3c0.2-0.3,0.3-0.4,0.6-0.3
		c0.3,0.1,0.5,0.2,0.4,0.6c-0.5,1.5-0.9,2.9-1.3,4.4c-0.2,0.7-0.7,0.9-1.3,0.9C21.1,30.7,20.8,30.8,20.4,30.8z"/>
	<path d="M25.4,46.5c0.8-1.7,1.6-3.3,2.4-5c0.2-0.5,0.4-1,0.6-1.5c0-0.1,0.2-0.2,0.3-0.2c0.9,0,1.8,0,2.7,0l0.1,0.1
		c-0.1,0.1-0.2,0.3-0.3,0.3c-1.1,0.2-1.2,0.2-1.2,1.6c0.1,1.8,0.1,3.7,0.1,5.5c0,0.1,0,0.3,0,0.4c0.1,0.7,0.2,0.8,0.9,1
		c0.2,0,0.6-0.1,0.5,0.5c-1.4,0-2.8,0-4.2,0c-0.1-0.3,0-0.4,0.2-0.4s0.4,0,0.5-0.1c0.2-0.1,0.4-0.3,0.4-0.5c0-2,0-4-0.1-6
		c-0.1,0.1-0.1,0.2-0.2,0.3c-1,2.2-2,4.3-2.9,6.5c-0.1,0.2-0.2,0.3-0.5,0.3s-0.3-0.1-0.4-0.3c-0.9-2.2-1.8-4.4-2.8-6.6
		c0-0.1-0.1-0.1-0.2-0.3c-0.1,1-0.1,1.8-0.2,2.7c0,1-0.1,2-0.1,3.1c0,0.7,0.2,0.9,0.9,1c0.2,0,0.4,0.1,0.6,0.1c0,0,0,0.1,0.1,0.1
		c-0.1,0.1-0.2,0.3-0.3,0.3c-1.1,0-2.2,0-3.3,0c-0.1,0-0.2-0.1-0.3-0.2c0.1-0.1,0.2-0.2,0.3-0.3c0.1,0,0.2,0,0.3-0.1
		c0.6-0.1,0.8-0.3,0.9-0.9c0.1-1.1,0.2-2.3,0.3-3.4c0.1-1,0.1-1.9,0.2-2.9c0.1-0.8-0.1-1-0.9-1.2c-0.5-0.1-0.5-0.1-0.5-0.5
		c0.9,0,1.8,0,2.7,0c0.1,0,0.3,0.2,0.3,0.3c1,2.1,2,4.3,2.9,6.4C25.3,46.5,25.4,46.5,25.4,46.5z"/>
	<path d="M47,42.9c0,1.6,0,3,0,4.5c0,1,0,1,0.9,1.2c0.1,0.3,0,0.4-0.3,0.4c-1.4,0-2.7,0-4.1,0.1c-0.7,0-1.2-0.2-1.6-0.8
		c-0.5-0.6-1-1.3-1.5-1.9c-0.1-0.1-0.2-0.2-0.4-0.3h-0.1c0,0.7,0,1.4,0.1,2c0,0.1,0.2,0.3,0.4,0.3c0.2,0.1,0.4,0.1,0.7,0.2
		C41,48.8,40.9,49,40.8,49c-1,0-2,0-3,0c-0.1-0.3-0.1-0.4,0.2-0.5c0.6-0.1,0.7-0.2,0.7-0.9c0-2.4,0-4.9,0-7.3c0-0.7,0.1-0.7-1.1-0.9
		c0.1-0.1,0.1-0.3,0.2-0.3c0.7-0.1,1.4-0.3,2.1-0.4c0.1,0,0.1,0,0.1,0c0,2.3,0,4.5,0,6.8c0.1-0.1,0.3-0.1,0.4-0.2
		c0.4-0.4,0.9-0.9,1.3-1.4c0.3-0.3,0.2-0.5-0.2-0.6c-0.1,0-0.2,0-0.3,0c-0.1-0.1-0.2-0.1-0.3-0.2c0.1-0.1,0.2-0.2,0.3-0.2
		c0.8,0,1.7-0.1,2.5-0.1c0.1,0,0.2,0.1,0.3,0.2c-0.1,0.1-0.1,0.2-0.2,0.3c-0.6,0.1-1.1,0.5-1.5,0.9s-0.8,0.7-1.3,1.1
		c0.8,1,1.6,1.8,2.3,2.6c0.5,0.5,1.1,0.6,1.7,0.5c0.3-0.1,0.5-0.2,0.5-0.5c0-1.2,0-2.5,0-3.7c0-0.2-0.3-0.4-0.4-0.6
		c-0.1-0.1-0.2-0.2-0.3-0.3c0.1-0.1,0.3-0.2,0.4-0.2c0.5-0.1,0.9-0.2,1.4-0.3C46.7,42.9,46.9,42.9,47,42.9z"/>
	<path d="M57.3,49.4c-0.3-0.2-0.5-0.4-0.8-0.7c-0.2-0.3-0.2-0.5,0.2-0.7c0.3-0.1,0.5-0.3,0.8-0.5c-0.1-0.1-0.1-0.1-0.2-0.1
		c-1-0.4-1.3-1.2-1.3-2.2c0.1-1,0.6-1.6,1.5-2c0.8-0.3,1.6-0.4,2.4-0.1c0.3,0.1,0.6,0.2,0.9,0.2c0.3,0,0.6-0.1,0.9-0.2
		c0.2,0,0.3-0.1,0.5-0.1c-0.1,0.8-0.3,1-1.2,1.1c0,0.3,0.1,0.6,0.1,0.9c0,1.2-0.8,2-2,2.3c-0.2,0.1-0.5,0-0.7,0.1s-0.3,0.3-0.5,0.4
		c0.1,0.1,0.2,0.4,0.4,0.4c0.5,0.1,1,0.1,1.5,0.2c0.3,0,0.6,0.1,0.9,0.1c1.2,0.2,1.7,1.1,1.3,2.3c-0.5,1.3-1.5,1.9-2.7,2.2
		c-0.7,0.2-1.5,0.1-2.2-0.2c-0.5-0.2-0.9-0.6-1.1-1.1c-0.2-0.7-0.2-1.2,0.4-1.6C56.7,49.9,57,49.6,57.3,49.4z M58.7,49.4
		C58.7,49.4,58.7,49.5,58.7,49.4c-0.1,0-0.3,0-0.4,0c-0.6,0.1-1,0.5-1.2,1s0,0.9,0.4,1.3c0.7,0.7,2.2,0.7,2.9,0.1
		c0.4-0.3,0.6-0.8,0.5-1.3s-0.4-0.8-0.9-0.9C59.5,49.6,59.1,49.5,58.7,49.4z M59.8,45.3c0-0.6-0.1-1.1-0.5-1.5
		c-0.5-0.5-1.2-0.5-1.6,0c-0.6,0.7-0.4,2.4,0.4,2.9c0.6,0.4,1.2,0.2,1.5-0.4C59.7,45.9,59.8,45.6,59.8,45.3z"/>
	<path d="M65.2,49c-0.1-0.3-0.1-0.4,0.2-0.4c1-0.1,1.2,0,1.2-1.5c0-2,0-4,0-6.1c0-0.7-0.1-0.8-0.8-0.9c-0.1,0-0.2,0-0.3-0.1
		c-0.1,0-0.1-0.1-0.2-0.2c0.1-0.1,0.2-0.2,0.2-0.2c0.2,0,0.4,0,0.7,0c0.9,0,1.7,0,2.6,0c0.1,0,0.3,0,0.4,0s0.2,0.1,0.2,0.2
		c-0.1,0.1-0.1,0.2-0.2,0.2c-1,0.3-1,0.3-1,1.4c0,2,0,4.1,0,6.1c0,0.6,0.1,0.7,0.7,0.8c0.6,0,1.1,0,1.7,0.1c0.5,0,0.8-0.2,1.1-0.6
		c0.3-0.5,0.6-0.9,0.8-1.4c0.1-0.3,0.3-0.3,0.5-0.2c0.3,0.1,0.3,0.2,0.2,0.4c-0.2,0.7-0.4,1.3-0.6,2c-0.1,0.3-0.2,0.4-0.5,0.4
		c-0.9,0-1.7,0-2.6,0C68.1,49,66.7,49,65.2,49z"/>
	<path d="M92,44.3c0-1.1,0-2.2,0-3.3c0-0.6-0.1-0.7-0.7-0.9c-0.2,0-0.6,0.1-0.6-0.3c0-0.4,0.4-0.2,0.6-0.2c1,0,2,0,3,0
		c0.1,0,0.2,0,0.3,0c0.1,0,0.2,0.1,0.2,0.2c-0.1,0.1-0.1,0.2-0.2,0.2c-1,0.3-1,0.3-1,1.4c0,2,0,4.1,0,6.1c0,0.6,0.1,0.7,0.8,0.8
		c0.5,0,1.1,0,1.6,0.1c0.5,0,0.9-0.2,1.2-0.6c0.3-0.4,0.5-0.9,0.7-1.3c0.1-0.3,0.3-0.3,0.5-0.2c0.3,0.1,0.2,0.2,0.2,0.4
		c-0.2,0.7-0.4,1.3-0.6,2c-0.1,0.3-0.2,0.4-0.5,0.4c-0.9,0-1.8,0-2.6,0c-1.3,0-2.6,0-3.9,0c-0.1,0-0.3-0.1-0.4-0.2
		c0.1-0.1,0.2-0.2,0.3-0.3c1.2-0.2,1.2-0.2,1.2-1.4C92,46.2,92,45.3,92,44.3L92,44.3z"/>
	<path d="M51.6,48.8c-0.1,0.1-0.2,0.2-0.3,0.2c-1,0-1.9,0-2.9,0c-0.1-0.3-0.1-0.4,0.2-0.5c0.5,0,0.6-0.3,0.6-0.8c0-1.1,0-2.1,0-3.2
		c0-0.4-0.1-0.6-0.5-0.8c-0.1-0.1-0.2-0.2-0.3-0.3c0.1-0.1,0.3-0.2,0.4-0.2c0.4-0.1,0.8-0.3,1.3-0.4c0.2,0,0.3-0.1,0.5-0.1
		c0,0.3,0,0.5,0,0.8c0.3-0.2,0.5-0.3,0.8-0.5c1.7-0.9,3.1-0.1,3.2,1.8c0,0.8,0,1.6,0,2.4c0,0.9,0,0.9,1,1.3
		c-0.1,0.1-0.2,0.3-0.3,0.3c-1,0-2,0-3,0c-0.1-0.3,0-0.4,0.2-0.4c0.5,0,0.7-0.4,0.6-0.8c0-0.9,0-1.8-0.1-2.8c0-0.6-0.3-1-0.8-1.2
		c-0.6-0.2-1.1,0-1.5,0.4c-0.1,0.1-0.2,0.4-0.2,0.6c0,0.9,0,1.8,0,2.7C50.6,48.4,50.6,48.4,51.6,48.8z"/>
	<path d="M105.8,48.4c-0.1,0.1-0.2,0.3-0.3,0.3c-0.5,0.2-1.1,0.4-1.6,0.5c-0.3,0.1-0.5,0-0.5-0.4c0-0.1,0-0.3,0-0.4
		c-0.6,0.2-1.1,0.5-1.7,0.7c-1.3,0.3-2.1-0.5-2.2-1.8c0-0.8,0-1.7,0-2.5c0-1,0-1-1-1.4c0.1-0.1,0.1-0.3,0.2-0.3
		c0.7-0.1,1.4-0.1,2-0.2h0.1c0,1.2,0,2.4,0,3.7c0,0.1,0,0.2,0,0.3c0.1,1.2,1,1.7,2.1,1.1c0.3-0.2,0.4-0.4,0.4-0.8c0-1,0-2,0-3
		c0-0.4-0.2-0.6-0.6-0.6c-0.2,0-0.3,0-0.5-0.1c-0.1,0-0.2-0.1-0.2-0.2c0-0.1,0.1-0.2,0.2-0.2c0.8-0.1,1.6-0.1,2.4-0.2
		c0,1.5,0,2.9,0,4.3c0,0.2,0,0.4,0,0.5c0,0.3,0.1,0.5,0.5,0.4c0.2,0,0.3,0,0.5,0C105.7,48.3,105.7,48.3,105.8,48.4z"/>
	<path d="M117.3,49.3c0-0.4-0.1-0.6-0.1-0.9c-0.3,0.2-0.6,0.4-0.9,0.5c-0.6,0.3-1.2,0.4-1.8,0.2c-0.7-0.2-1.1-0.7-1.2-1.4
		c-0.1-0.8,0-1.6,0-2.5c0-0.3,0-0.7,0-1c0-0.4-0.2-0.6-0.6-0.6c-0.1,0-0.2-0.2-0.3-0.2c0.1-0.1,0.2-0.2,0.4-0.2
		c0.6-0.1,1.3-0.1,1.9-0.2c0,1.2,0,2.4,0,3.6c0,0.1,0,0.2,0,0.4c0,0.5,0.2,1,0.7,1.3c0.6,0.2,1.1,0,1.6-0.4c0.2-0.1,0.2-0.4,0.2-0.7
		c0-0.9,0-1.8,0-2.7c0-0.6-0.1-0.7-0.7-0.8c-0.2,0-0.4-0.1-0.7-0.1c0.2-0.2,0.2-0.3,0.3-0.3c0.8-0.1,1.6-0.1,2.4-0.2
		c0,0.3,0,0.6,0,0.9c0,1.3,0,2.5,0,3.8c0,0.4,0.1,0.7,0.6,0.6c0.1,0,0.3,0.1,0.4,0.2c-0.1,0.1-0.2,0.3-0.3,0.3
		C118.6,48.9,118,49.1,117.3,49.3z"/>
	<path d="M128.9,46.1c-0.1-1.7,1.2-3.1,3.1-3.2c1.9-0.1,3.1,1,3.2,2.9c0.1,1.9-1.2,3.4-3.2,3.5C130.3,49.2,129,48.2,128.9,46.1z
		 M133.8,46.6c0-1.1-0.2-2-0.8-2.7c-0.9-0.9-2.1-0.6-2.5,0.6c-0.2,0.8-0.2,1.6,0.1,2.4c0.2,0.6,0.5,1.1,1,1.4
		c0.8,0.5,1.6,0.2,1.9-0.6C133.7,47.3,133.7,46.8,133.8,46.6z"/>
	<path d="M109.2,43.1c-0.1,0.1-0.2,0.3-0.3,0.3c-0.3,0.1-0.3,0.2-0.2,0.4c0.2,0.4,0.4,0.8,0.7,1.2c0.3-0.5,0.5-0.9,0.8-1.3
		c0.1-0.3-0.1-0.3-0.3-0.4c-0.1,0-0.2-0.2-0.4-0.3c0.1-0.1,0.3-0.2,0.4-0.2c0.7,0,1.3,0,2,0c0.1,0,0.2,0.1,0.3,0.2
		c-0.1,0.1-0.2,0.2-0.3,0.2c-0.5,0.1-0.8,0.4-1.1,0.8c-0.1,0.1-0.2,0.3-0.3,0.4c-0.8,1.1-0.8,1.1-0.1,2.2c0.2,0.3,0.4,0.6,0.5,0.9
		c0.3,0.5,0.7,0.8,1.3,0.9c0.1,0,0.2,0.2,0.3,0.2c-0.1,0.1-0.2,0.2-0.3,0.2c-0.9,0-1.8,0-2.7,0c-0.1,0-0.2-0.1-0.4-0.2
		c0.1-0.1,0.2-0.2,0.3-0.2c0.3-0.1,0.4-0.2,0.2-0.5c-0.2-0.4-0.5-0.8-0.8-1.4c-0.3,0.5-0.6,1-0.9,1.4c0,0.1,0.1,0.3,0.2,0.3
		c0.1,0.1,0.3,0.1,0.5,0.1c0.1,0.3,0,0.4-0.3,0.4c-0.8,0-1.5,0-2.3,0c-0.1,0-0.2-0.1-0.4-0.2c0.1-0.1,0.2-0.2,0.3-0.2
		c0.5-0.1,0.9-0.4,1.2-0.8c0.3-0.5,0.7-0.9,1-1.4c0.2-0.2,0.2-0.4,0-0.6c-0.3-0.4-0.5-0.8-0.7-1.2c-0.3-0.6-0.7-1.2-1.6-1.1
		c0,0,0-0.1-0.1-0.1c0.1-0.1,0.2-0.3,0.3-0.3c0.9,0,1.9,0,2.8,0C109.1,43,109.2,43.1,109.2,43.1z"/>
	<path d="M77.3,43.5c0.1-0.1,0.3-0.3,0.4-0.3c0.4-0.1,0.6-0.3,0.6-0.7c0-1.4,0.6-2.6,1.9-3.4c0.6-0.4,1.3-0.5,2-0.2
		c0.2,0.1,0.5,0.3,0.4,0.4c-0.1,0.3-0.3,0.6-0.5,0.9c-0.1,0.1-0.4-0.1-0.6-0.2c-0.1,0-0.2-0.2-0.3-0.2c-0.6-0.4-1.2-0.2-1.3,0.5
		c-0.2,0.8-0.2,1.6-0.2,2.4c0,0.1,0.2,0.2,0.3,0.2c0.4,0,0.9,0,1.4,0c0,0.3-0.1,0.5-0.1,0.8c-0.4,0-0.8,0-1.2,0
		c-0.3,0-0.4,0.1-0.4,0.3c0,1.3,0.1,2.6,0.1,3.9c0,0.3,0.2,0.5,0.5,0.6c0.2,0,0.5,0.1,0.8,0.1C81,48.8,80.9,49,80.8,49
		c-1.1,0-2.2,0-3.3,0c-0.1-0.3,0-0.5,0.3-0.5c0.5,0,0.6-0.3,0.6-0.7c0-1.2,0-2.4,0.1-3.6c0-0.4-0.1-0.5-0.5-0.5
		c-0.2,0-0.3,0-0.5-0.1C77.3,43.6,77.3,43.6,77.3,43.5z"/>
	<path d="M37.5,48.3c0,0.4-0.3,0.7-0.8,0.8c-0.7,0.2-1.1,0-1.5-0.6c-0.4,0.2-0.8,0.4-1.2,0.5c-0.6,0.2-1.2,0.1-1.6-0.4
		c-0.4-0.6-0.5-1.4-0.2-1.9c0.1-0.1,0.3-0.2,0.4-0.3c0.7-0.2,1.3-0.5,2-0.6c0.5-0.1,0.6-0.4,0.6-0.9S35,44,34.6,43.7
		c-0.6-0.4-1.1-0.2-1.5,0.4c-0.1,0.1-0.1,0.3-0.2,0.4c-0.1,0.1-0.3,0.2-0.4,0.2c-0.1-0.1-0.3-0.3-0.3-0.4c0.1-0.4,0.2-0.7,0.6-0.9
		c0.7-0.3,1.3-0.7,2.1-0.6c1,0.2,1.5,0.8,1.5,1.9c0,0.8,0,1.7,0,2.5c0,0.9,0,1,0.9,1C37.4,48.3,37.4,48.3,37.5,48.3z M35.1,46.2
		c-0.1,0-0.2,0-0.3,0.1c-0.4,0.1-0.7,0.3-1.1,0.4c-0.4,0.2-0.4,0.5-0.4,0.9c0.1,0.5,0.5,0.8,0.9,0.7c0.5,0,0.8-0.2,0.8-0.6
		C35.2,47.2,35.1,46.7,35.1,46.2z"/>
	<path d="M87,47.7c-0.1,0.1-0.1,0.3-0.2,0.4c-0.9,1.1-2.8,1.4-4,0.6c-1-0.7-1.5-2.4-1.1-3.8c0.4-1.3,1.5-2.1,2.8-2.1
		c1,0,1.7,0.5,2,1.4c0.1,0.3,0.3,0.7,0.4,1c0,0.1-0.2,0.3-0.3,0.3c-1,0.1-2,0.2-3.1,0.3c-0.8,0-0.9,0.1-0.6,0.8c0.5,1.5,2,2,3.3,1.2
		c0.2-0.1,0.3-0.1,0.5-0.2C86.9,47.6,87,47.7,87,47.7z M83,45.2c0.6,0,1.1,0,1.6,0c0.3,0,0.6-0.1,0.8-0.1c-0.1-0.3-0.2-0.7-0.3-1
		c0-0.1-0.2-0.2-0.3-0.3c-0.5-0.5-1-0.4-1.5,0.1C83.1,44.2,83,44.6,83,45.2z"/>
	<path d="M140.3,43c0,0.5-0.1,0.9-0.1,1.3c0,0.1-0.2,0.2-0.3,0.2s-0.3-0.1-0.4-0.2c-0.1-0.2-0.1-0.4-0.2-0.6c-0.2-0.4-0.6-0.5-1-0.5
		s-0.6,0.2-0.8,0.6c-0.1,0.4-0.1,0.7,0.2,1c0.3,0.2,0.6,0.4,0.8,0.5c0.4,0.2,0.8,0.4,1.1,0.6c1,0.7,1,2.1-0.1,2.7
		c-1,0.6-2.1,0.5-3.2,0.2c-0.1,0-0.2-0.2-0.2-0.3c-0.1-0.4-0.1-0.7-0.2-1.1c0-0.1,0.1-0.4,0.2-0.4c0.1,0,0.3,0.1,0.4,0.2
		c0.2,0.3,0.3,0.6,0.5,0.8s0.6,0.4,0.9,0.5c0.4,0.1,0.8-0.1,1-0.5c0.2-0.3,0.1-0.8-0.3-1.1c-0.3-0.2-0.5-0.3-0.8-0.5
		c-0.4-0.2-0.8-0.4-1.1-0.7c-1-0.8-0.8-2.3,0.4-2.8C138.3,42.6,139.3,42.8,140.3,43z"/>
	<path d="M120,49c-0.1-0.3,0-0.4,0.2-0.5c0.5,0,0.6-0.3,0.6-0.8c0-1.1,0-2.1,0-3.2c0-0.4-0.2-0.7-0.6-0.8c-0.1,0-0.2-0.2-0.2-0.2
		c0.1-0.1,0.2-0.2,0.3-0.2c0.5-0.1,0.9-0.3,1.4-0.4c0.1,0,0.3,0,0.5-0.1c0,0.3,0,0.6,0,1c0.3-0.3,0.5-0.5,0.8-0.7
		c0.4-0.3,0.9-0.4,1.4-0.2c0.3,0.1,0.4,0.3,0.3,0.6c0,0.1-0.1,0.2-0.1,0.3c-0.3,0.7-0.3,0.7-1,0.3c-0.5-0.3-1-0.1-1.3,0.6
		c-0.1,0.2-0.1,0.4-0.1,0.6c0,0.8,0,1.6,0,2.4c0,0.7,0.1,0.7,0.7,0.8c0.2,0,0.3,0.1,0.7,0.1c-0.2,0.2-0.2,0.4-0.3,0.4
		C122.1,49,121,49,120,49z"/>
	<path d="M128.3,48.8c-0.1,0.1-0.2,0.2-0.3,0.2c-1,0-2,0-3,0c-0.1-0.3-0.1-0.4,0.2-0.5c0.5,0,0.7-0.3,0.7-0.8c0-1.1,0-2.1,0-3.2
		c0-0.5-0.1-0.8-0.6-0.9c-0.1,0-0.2-0.2-0.2-0.3c0.1-0.1,0.2-0.2,0.3-0.2c0.5-0.1,1-0.2,1.5-0.4c0.1,0,0.2,0,0.4,0
		c0,0.9,0,1.8,0,2.7c0,0.7,0,1.4,0,2.1c0,0.7,0,0.7,0.7,0.9c0.1,0,0.1,0,0.2,0.1C128.2,48.7,128.2,48.7,128.3,48.8z"/>
	<path d="M75.9,42.9c0,1.6,0,3.2,0,4.8c0,0.8,0,0.8,0.8,1c0.1,0,0.1,0,0.3,0.1c-0.2,0.1-0.3,0.3-0.4,0.3c-1,0-2,0-3,0
		c-0.1-0.3-0.1-0.4,0.2-0.5c0.5,0,0.7-0.3,0.7-0.8c0-1.1,0-2.3,0-3.4c0-0.4-0.3-0.5-0.6-0.7c-0.1,0-0.2-0.2-0.3-0.2
		c0.1-0.1,0.2-0.2,0.3-0.2c0.5-0.1,1-0.2,1.5-0.3C75.7,42.9,75.8,42.9,75.9,42.9z"/>
	<path d="M156.7,2.4c2,0,3.6,1.6,3.6,3.6s-1.6,3.6-3.6,3.6S153.1,8,153.1,6C153.1,4,154.7,2.4,156.7,2.4z M160.1,6
		c0-1.9-1.5-3.4-3.4-3.5c-1.9,0-3.5,1.5-3.5,3.4s1.5,3.5,3.4,3.5C158.6,9.5,160.1,8,160.1,6z"/>
	<path d="M46.4,40.1c0.5,0,0.7,0.2,0.7,0.6c0,0.5-0.3,0.8-0.8,0.8s-0.8-0.3-0.8-0.7C45.5,40.3,45.8,40.1,46.4,40.1z"/>
	<path d="M75.3,40.1c0.5,0,0.7,0.2,0.7,0.6c0,0.5-0.3,0.8-0.8,0.8s-0.8-0.3-0.8-0.8C74.4,40.3,74.8,40.1,75.3,40.1z"/>
	<path d="M126.6,40.1c0.5,0,0.7,0.2,0.7,0.6c0,0.5-0.3,0.7-0.8,0.8c-0.5,0-0.8-0.3-0.8-0.8C125.7,40.3,126,40.1,126.6,40.1z"/>
	<path d="M155,4.1c0.8,0,1.5,0,2.2,0c0.4,0,0.7,0.4,0.8,0.9c0,0.4-0.2,0.8-0.5,1c-0.1,0.1-0.3,0.1-0.4,0.1c0.4,0.6,0.8,1.1,1.2,1.7
		c-0.4,0.2-0.6,0-0.8-0.3c-0.1-0.3-0.3-0.5-0.5-0.7c-0.4-0.6-0.7-0.7-1.5-0.6c0,0.5,0,1.1,0,1.6l-0.1,0.1c-0.1-0.1-0.3-0.2-0.3-0.2
		C155,6.5,155,5.3,155,4.1z M155.5,5.8c0.5,0,1,0,1.5-0.1c0.2,0,0.4-0.3,0.4-0.5s-0.2-0.5-0.3-0.5c-0.5-0.1-1.1-0.1-1.6-0.1
		c0,0.4,0,0.8-0.1,1.2C155.5,5.6,155.5,5.7,155.5,5.8z"/>
</g>
</svg>
