<svg id="Layer_1" data-name="Layer 1" xmlns="http://www.w3.org/2000/svg" viewBox="0 0 270.301 48.338"><defs><style>.cls-1{fill:#fff;}</style></defs><title>logo</title><path class="cls-1" d="M105.946,42.371l-2.277,7.945h-1.152l-2.07-7.724c-.085-.322-.163-.586-.234-.79a2.646,2.646,0,0,0-.213-.48.9.9,0,0,0-.232-.263,1.14,1.14,0,0,0-.359-.153v-.348h3.044v.348a1.215,1.215,0,0,0-.615.256.637.637,0,0,0-.174.477,3.239,3.239,0,0,0,.064.59q.065.342.178.775l1.429,5.619,2.29-8.065h1.2l1.856,8.073,1.679-5.428a5.577,5.577,0,0,0,.306-1.408.894.894,0,0,0-.182-.626,1.049,1.049,0,0,0-.6-.263v-.348h2.8v.348a1.369,1.369,0,0,0-.342.16,1.116,1.116,0,0,0-.245.242,2.309,2.309,0,0,0-.256.473q-.139.319-.324.861l-2.589,7.674h-1.017Z" transform="translate(-6.864 -2.043)"/><path class="cls-1" d="M118.558,49.058a6.119,6.119,0,0,1-.835.747,3.238,3.238,0,0,1-.836.423,3.164,3.164,0,0,1-1,.153,2.739,2.739,0,0,1-2.212-.879,3.911,3.911,0,0,1-.747-2.593,4.364,4.364,0,0,1,.38-1.87,2.875,2.875,0,0,1,1.085-1.252,3.286,3.286,0,0,1,2.845-.214,2.073,2.073,0,0,1,.807.622,2.916,2.916,0,0,1,.47,1,6.534,6.534,0,0,1,.189,1.569h-4.482v.128a4.556,4.556,0,0,0,.189,1.412,1.778,1.778,0,0,0,.619.9,1.811,1.811,0,0,0,1.12.324A2.466,2.466,0,0,0,117.2,49.3a3.128,3.128,0,0,0,.929-.708Zm-1.2-2.888a5.365,5.365,0,0,0-.192-1.256,1.576,1.576,0,0,0-.448-.747,1.15,1.15,0,0,0-.782-.26,1.388,1.388,0,0,0-1.17.587,3.156,3.156,0,0,0-.516,1.676Z" transform="translate(-6.864 -2.043)"/><path class="cls-1" d="M161.985,50.267v-.349a1.466,1.466,0,0,0,.591-.252.683.683,0,0,0,.195-.395,4.67,4.67,0,0,0,.047-.783V42.336a5.028,5.028,0,0,0-.036-.715.88.88,0,0,0-.117-.349.611.611,0,0,0-.217-.2,2.428,2.428,0,0,0-.463-.167v-.348h3.891a5.6,5.6,0,0,1,1.817.241,2.04,2.04,0,0,1,1.022.715,2.065,2.065,0,0,1,.334,1.22,2.284,2.284,0,0,1-.238,1.074,2.314,2.314,0,0,1-.623.755,4.459,4.459,0,0,1-.989.554v.064a2.911,2.911,0,0,1,1.466.9,2.217,2.217,0,0,1,.5,1.447,2.676,2.676,0,0,1-.431,1.579,2.4,2.4,0,0,1-1.206.886,5.649,5.649,0,0,1-1.878.274Zm3.408-5.357a2.375,2.375,0,0,0,1.654-.522,1.956,1.956,0,0,0,.572-1.519,1.841,1.841,0,0,0-.16-.814,1.321,1.321,0,0,0-.44-.516,1.83,1.83,0,0,0-.666-.273,3.965,3.965,0,0,0-.832-.082q-.27,0-.711.013t-.662.029V44.91Zm-1.245,4.681q.519.05,1.16.05a3.574,3.574,0,0,0,1.447-.235,1.5,1.5,0,0,0,.747-.693,2.552,2.552,0,0,0,.231-1.15,2.3,2.3,0,0,0-.253-1.137,1.533,1.533,0,0,0-.779-.669,3.845,3.845,0,0,0-1.45-.221h-1.1Z" transform="translate(-6.864 -2.043)"/><path class="cls-1" d="M173.005,44.647l.1.022a5.5,5.5,0,0,1,.726-.751,2.63,2.63,0,0,1,.722-.423,2.447,2.447,0,0,1,.879-.149,5.856,5.856,0,0,1,.747.043v1.635h-.8a1.679,1.679,0,0,0-.363-.558.756.756,0,0,0-.527-.174.994.994,0,0,0-.508.149,1.95,1.95,0,0,0-.488.434,1.845,1.845,0,0,0-.323.533,1.742,1.742,0,0,0-.089.591v2.489a3.449,3.449,0,0,0,.078.893.628.628,0,0,0,.26.359,1.566,1.566,0,0,0,.544.178v.349h-2.866v-.349a2.393,2.393,0,0,0,.387-.149.625.625,0,0,0,.2-.178.851.851,0,0,0,.128-.349,4.427,4.427,0,0,0,.043-.732v-3.1c0-.3,0-.548-.014-.732a1.121,1.121,0,0,0-.1-.445.543.543,0,0,0-.26-.249,2.085,2.085,0,0,0-.494-.138v-.37l1.664-.072h.434Z" transform="translate(-6.864 -2.043)"/><path class="cls-1" d="M181.335,49.249l-.106-.028a4.328,4.328,0,0,1-1.164.9,2.611,2.611,0,0,1-1.155.264,2.071,2.071,0,0,1-.953-.21,1.5,1.5,0,0,1-.634-.591,1.728,1.728,0,0,1-.219-.878,1.755,1.755,0,0,1,1.027-1.6,7.3,7.3,0,0,1,3.084-.659v-.461a3.812,3.812,0,0,0-.143-1.167,1.136,1.136,0,0,0-.448-.626,1.489,1.489,0,0,0-.818-.2,1.324,1.324,0,0,0-.893.291,1.794,1.794,0,0,0-.508.875h-.932v-.924a10.027,10.027,0,0,1,1.138-.523,6.824,6.824,0,0,1,.91-.264,4.552,4.552,0,0,1,.925-.1,2.442,2.442,0,0,1,1.131.223,1.435,1.435,0,0,1,.641.687,3.5,3.5,0,0,1,.213,1.394v2.476c0,.351,0,.6.007.743a2.584,2.584,0,0,0,.042.4.849.849,0,0,0,.107.3.6.6,0,0,0,.21.189,2.162,2.162,0,0,0,.452.163v.349H181.3Zm-.12-2.226a5.01,5.01,0,0,0-2.163.384,1.191,1.191,0,0,0-.718,1.117,1.11,1.11,0,0,0,.163.64.837.837,0,0,0,.413.323,1.736,1.736,0,0,0,.59.089,1.7,1.7,0,0,0,.879-.234,1.747,1.747,0,0,0,.615-.6,1.371,1.371,0,0,0,.221-.718Z" transform="translate(-6.864 -2.043)"/><path class="cls-1" d="M191.63,50.267h-2.8v-.349a2.519,2.519,0,0,0,.4-.149.584.584,0,0,0,.2-.178.95.95,0,0,0,.129-.352,4.217,4.217,0,0,0,.046-.722V46.653c0-.332-.01-.632-.029-.9a3.754,3.754,0,0,0-.1-.665,1.335,1.335,0,0,0-.164-.405,1,1,0,0,0-.227-.249,1.051,1.051,0,0,0-.3-.164,1.374,1.374,0,0,0-.448-.061,1.292,1.292,0,0,0-.526.11,2.193,2.193,0,0,0-.547.381,1.974,1.974,0,0,0-.435.533,1.308,1.308,0,0,0-.135.605v2.653a4.229,4.229,0,0,0,.057.85.624.624,0,0,0,.217.363,1.481,1.481,0,0,0,.523.217v.349H184.7v-.349a2.33,2.33,0,0,0,.4-.149.6.6,0,0,0,.2-.178.93.93,0,0,0,.128-.349,4.246,4.246,0,0,0,.046-.732v-3.1c0-.3,0-.548-.014-.732a1.121,1.121,0,0,0-.1-.445.545.545,0,0,0-.259-.249,2.114,2.114,0,0,0-.494-.138v-.377l1.664-.065h.433l-.078,1.161.1.028a6.726,6.726,0,0,1,.849-.762,2.97,2.97,0,0,1,.656-.351,1.961,1.961,0,0,1,.7-.125,2.482,2.482,0,0,1,.686.088,1.561,1.561,0,0,1,.533.275,1.472,1.472,0,0,1,.381.459,2.261,2.261,0,0,1,.224.657,5.238,5.238,0,0,1,.075.975v2.681a6.237,6.237,0,0,0,.028.711.9.9,0,0,0,.1.342.581.581,0,0,0,.206.2,2.026,2.026,0,0,0,.47.174Z" transform="translate(-6.864 -2.043)"/><path class="cls-1" d="M198,42.535q0-.682-.011-.953a2.4,2.4,0,0,0-.056-.459.829.829,0,0,0-.128-.295.572.572,0,0,0-.221-.171,2.272,2.272,0,0,0-.5-.128v-.37l1.722-.071h.42v8.237c0,.369.007.634.021.793a1.084,1.084,0,0,0,.092.38.543.543,0,0,0,.225.231,1.858,1.858,0,0,0,.537.167v.371l-1.679.071h-.427l.085-1.167-.106-.028a5.637,5.637,0,0,1-.78.714,2.986,2.986,0,0,1-.7.381,2.221,2.221,0,0,1-.8.143,2.081,2.081,0,0,1-1.8-.886,5.247,5.247,0,0,1-.221-4.538,2.813,2.813,0,0,1,1.113-1.213,3.139,3.139,0,0,1,1.576-.4,4.547,4.547,0,0,1,.853.074,3.994,3.994,0,0,1,.79.246Zm0,3.514a6.352,6.352,0,0,0-.05-.89,1.8,1.8,0,0,0-.167-.561,1.134,1.134,0,0,0-.316-.384,1.293,1.293,0,0,0-.438-.228,2,2,0,0,0-.573-.071,1.556,1.556,0,0,0-1.387.729,3.836,3.836,0,0,0-.476,2.094,4.408,4.408,0,0,0,.391,2.077,1.273,1.273,0,0,0,1.188.712,2.141,2.141,0,0,0,.519-.053,1.6,1.6,0,0,0,.406-.171,2.051,2.051,0,0,0,.405-.324,1.85,1.85,0,0,0,.3-.376,1.49,1.49,0,0,0,.145-.392,2.674,2.674,0,0,0,.05-.569Z" transform="translate(-6.864 -2.043)"/><path class="cls-1" d="M134.679,40.906a1.936,1.936,0,0,0-.452.157.646.646,0,0,0-.221.2.9.9,0,0,0-.121.352,4.878,4.878,0,0,0-.039.726v6.152a5.478,5.478,0,0,0,.032.7.994.994,0,0,0,.107.348.6.6,0,0,0,.221.213,1.938,1.938,0,0,0,.473.171v.349h-2.967v-.349a1.491,1.491,0,0,0,.562-.228.659.659,0,0,0,.214-.377,4.154,4.154,0,0,0,.057-.825V45.764q0-1.074.032-2.173t.074-1.5h-.121l-2.816,7.049H128.9l-2.618-7.163h-.121c.024.29.047.813.068,1.572s.032,1.539.032,2.34v2.6a5.478,5.478,0,0,0,.032.7.973.973,0,0,0,.107.348.593.593,0,0,0,.22.213,1.955,1.955,0,0,0,.473.171v.349h-2.6v-.349a1.46,1.46,0,0,0,.59-.252.69.69,0,0,0,.2-.395,4.806,4.806,0,0,0,.046-.783V42.336a5.224,5.224,0,0,0-.035-.715.9.9,0,0,0-.118-.349.6.6,0,0,0-.217-.2,2.413,2.413,0,0,0-.462-.167v-.348h2.539l2.5,6.921,2.745-6.921h2.405Z" transform="translate(-6.864 -2.043)"/><path class="cls-1" d="M140.705,49.249l-.107-.028a4.325,4.325,0,0,1-1.163.9,2.615,2.615,0,0,1-1.156.264,2.071,2.071,0,0,1-.953-.21,1.5,1.5,0,0,1-.633-.591,1.719,1.719,0,0,1-.221-.878,1.758,1.758,0,0,1,1.028-1.6,7.3,7.3,0,0,1,3.083-.659v-.461a3.816,3.816,0,0,0-.142-1.167,1.136,1.136,0,0,0-.448-.626,1.484,1.484,0,0,0-.818-.2,1.318,1.318,0,0,0-.892.291,1.787,1.787,0,0,0-.509.875h-.932v-.924a9.948,9.948,0,0,1,1.138-.523,6.8,6.8,0,0,1,.911-.264,4.527,4.527,0,0,1,.924-.1,2.442,2.442,0,0,1,1.131.223,1.423,1.423,0,0,1,.64.687,3.466,3.466,0,0,1,.214,1.394v2.476q0,.526.007.743a2.58,2.58,0,0,0,.043.4.829.829,0,0,0,.107.3.586.586,0,0,0,.209.189,2.162,2.162,0,0,0,.452.163v.349h-1.949Zm-.122-2.226a5.008,5.008,0,0,0-2.162.384,1.191,1.191,0,0,0-.718,1.117,1.1,1.1,0,0,0,.164.64.834.834,0,0,0,.412.323,1.742,1.742,0,0,0,.591.089,1.689,1.689,0,0,0,.878-.234,1.747,1.747,0,0,0,.615-.6,1.369,1.369,0,0,0,.22-.718Z" transform="translate(-6.864 -2.043)"/><path class="cls-1" d="M145.969,46.305h.228a1.249,1.249,0,0,0,.385-.05,1.705,1.705,0,0,0,.391-.217,6.707,6.707,0,0,0,.6-.516,4.913,4.913,0,0,0,.5-.519,1.468,1.468,0,0,0,.231-.391.851.851,0,0,0,.056-.3.433.433,0,0,0-.13-.334.81.81,0,0,0-.432-.164v-.348h3.066v.348a2.125,2.125,0,0,0-.7.291,4.939,4.939,0,0,0-.762.6l-1.634,1.551,2.048,2.675a3.821,3.821,0,0,0,.643.693,1.526,1.526,0,0,0,.629.3v.349h-2.731v-.349a.613.613,0,0,0,.274-.082.224.224,0,0,0,.09-.2.61.61,0,0,0-.039-.21,1.616,1.616,0,0,0-.161-.281c-.082-.119-.228-.325-.441-.619l-.846-1.138a4.5,4.5,0,0,0-.345-.42.635.635,0,0,0-.217-.142.907.907,0,0,0-.307-.043h-.4v1.707a4.134,4.134,0,0,0,.058.85.619.619,0,0,0,.217.363,1.458,1.458,0,0,0,.522.217v.349h-2.824v-.349a1.636,1.636,0,0,0,.5-.192.574.574,0,0,0,.2-.239,1.279,1.279,0,0,0,.085-.377,6.093,6.093,0,0,0,.025-.622V42.535q0-.682-.011-.953a2.327,2.327,0,0,0-.056-.459.811.811,0,0,0-.129-.295.568.568,0,0,0-.22-.171,2.272,2.272,0,0,0-.5-.128v-.37l1.715-.071h.426Z" transform="translate(-6.864 -2.043)"/><path class="cls-1" d="M157.508,49.058a6.12,6.12,0,0,1-.836.747,3.223,3.223,0,0,1-.836.423,3.159,3.159,0,0,1-1,.153,2.741,2.741,0,0,1-2.212-.879,3.911,3.911,0,0,1-.747-2.593,4.349,4.349,0,0,1,.381-1.87,2.875,2.875,0,0,1,1.085-1.252,3.286,3.286,0,0,1,2.845-.214,2.081,2.081,0,0,1,.807.622,2.916,2.916,0,0,1,.47,1,6.592,6.592,0,0,1,.188,1.569h-4.481v.128a4.558,4.558,0,0,0,.188,1.412,1.779,1.779,0,0,0,.62.9,1.813,1.813,0,0,0,1.12.324,2.469,2.469,0,0,0,1.049-.217,3.125,3.125,0,0,0,.928-.708Zm-1.2-2.888a5.419,5.419,0,0,0-.192-1.256,1.584,1.584,0,0,0-.448-.747,1.15,1.15,0,0,0-.782-.26,1.388,1.388,0,0,0-1.17.587,3.156,3.156,0,0,0-.516,1.676Z" transform="translate(-6.864 -2.043)"/><path class="cls-1" d="M165.208,10.954a.124.124,0,0,0-.01-.02l-.012,0c0,.017.015.031.006.048a.8.8,0,0,1-.262-.232c.037.1.037.1.034.12-.157,0-.157,0-.676-.231l0,.006a.047.047,0,0,1,.007.017l0,0a.053.053,0,0,1-.026-.007,2.8,2.8,0,0,1,.476.5c-.035.051-.09-.015-.131.013.02.036.071.031.091.067,0,0,.022.063-.009.085a1.6,1.6,0,0,0,.332.279.518.518,0,0,0-.037-.1c.045,0,.065,0,.055-.037a.176.176,0,0,0-.093-.033.171.171,0,0,1-.154-.092c.034-.021.064,0,.1.029.033-.024-.007-.067.024-.092.111.02.218.058.329.079-.16-.182-.142-.206-.024-.359-.009-.011-.009-.011-.023-.05" transform="translate(-6.864 -2.043)"/><path class="cls-1" d="M136.221,8.668l.033-.025c-.009-.005-.009-.005-.074.006.006-.01,0-.022.011-.032l.01.006c.011-.006.017-.01.02-.043.212-.093.122-.149.12-.149a.083.083,0,0,0-.04.011s.058-.048.061-.074c-.019.014-.045.016-.062.033l0,.005a.271.271,0,0,0,.03-.013c0,.024-.055.033-.089.025.02-.019.066-.017.062-.056l0,0a.283.283,0,0,0-.037.032c.005-.016.005-.016-.009-.037.021-.059.087-.054.126-.089-.044.011-.024-.035-.013-.054l.007-.012c-.114.058-.114.058-.117.057l0-.005a1.068,1.068,0,0,1,.179-.11.847.847,0,0,0,.19-.125l-.012,0,0-.005,0-.006c.071,0,.071,0,.107-.037a.023.023,0,0,0-.009-.011c-.012,0-.023.01-.035.013s0-.008.03-.032h-.031a.46.46,0,0,0-.146.06c-.033.018-.07.024-.1.043-.069.042-.129.1-.2.141a.577.577,0,0,0-.167.132.021.021,0,0,1-.018,0c-.005-.008-.005-.008,0-.021-.131.088-.131.088-.139.088.01-.011.025-.015.035-.027-.066.015-.069.021-.084.048.03-.005.032,0,.044,0s0,.012-.008.032a.752.752,0,0,0-.153.054l-.009.011-.009.01-.009.011-.009.011-.009.01-.009.011-.009.011-.009.011c.091.009.107.15.218.124-.02.019-.054.019-.066.049.013,0,.013,0,.033.026h.008a.493.493,0,0,1,.039-.04c.018.023.013.034.009.045a.579.579,0,0,0-.2.085c.051.025.051.025.3-.105a.343.343,0,0,1-.129.133c-.025.017-.082.06-.08.081.03.006.043-.025.067-.031l0,0c-.027.029-.054.057-.079.086.011,0,.022-.008.035-.005s0,.008-.005.029c.181-.129.226-.169.266-.24-.051.046-.065.058-.086.056,0,0,0,0,.155-.124-.047,0-.083.019-.176.089.047-.062.047-.062.064-.073.054-.04.118-.061.173-.1" transform="translate(-6.864 -2.043)"/><path class="cls-1" d="M164.306,10.451c.01.008.022.02.031.028a1.134,1.134,0,0,0-.343-.243,1.051,1.051,0,0,1-.448-.4c.015-.029.027-.039.093-.029s.13.058.2.074c-.158-.086-.3-.173-.661-.392-.192-.117-.346-.289-.549-.39l.005.012a3.086,3.086,0,0,0-.439-.266l.007.007.007.01,0,.011-.007,0h0l-.009.008,0,.01c.08.009.134.044.24.157a.249.249,0,0,0-.067-.02c-.02.029-.02.029.056.079a18.6,18.6,0,0,1,1.806,1.462c-.038-.071-.107-.12-.136-.2a.348.348,0,0,1,.218.081" transform="translate(-6.864 -2.043)"/><path class="cls-1" d="M138.453,5.086l.007,0c.028-.025.052-.054.081-.079-.031.007-.042,0-.036-.025.1-.031.143-.13.214-.2v0l0,0v0l0,0v0l0,0a.493.493,0,0,0,.074-.063h0c.01,0,.026-.008.093-.058h0s0,0-.043.007l0,0s0-.008.018-.023l-.091.034c-.115.05-.218.122-.333.172h-.012a.1.1,0,0,0-.072.009c-.017.008-.037.021-.053.03.046.023.046.023.05.034-.037.029-.081.047-.119.075.021.019.052.013.148-.018.077-.025.094-.027.115-.021a.044.044,0,0,0-.034.017l0,0c.017.008.021.009-.008.034V5c-.006,0-.009,0-.043.022,0,0,.01.006.006.02s-.022.04-.028.062a.167.167,0,0,1,.08-.015" transform="translate(-6.864 -2.043)"/><path class="cls-1" d="M139.215,6.624q.679-.693,1.408-1.326h-.011l-.083-.007a.308.308,0,0,1-.136.079c-.189.071-.2.118-.2.12s.026.013.038.021a.705.705,0,0,0-.158.048c-.064.039-.1.107-.164.147a.075.075,0,0,1,.036,0c-.01.032-.061.035-.053.079-.145.107-.145.107-.207.157.01.029.006.039-.023.049,0,0-.191.145-.126.16-.121.077-.174.217-.282.306,0,.037-.028.068-.024.107-.015,0-.015,0-.091.069a.128.128,0,0,1,.074,0" transform="translate(-6.864 -2.043)"/><path class="cls-1" d="M140.953,5.016l.088-.074h0a.1.1,0,0,0-.04-.008.156.156,0,0,0-.047.082" transform="translate(-6.864 -2.043)"/><path class="cls-1" d="M141.135,4.865c.054-.045.109-.089.164-.133h-.006a.445.445,0,0,1-.149.05c-.084.095-.01.082-.009.082" transform="translate(-6.864 -2.043)"/><path class="cls-1" d="M141.314,4.72l.025-.02h0l-.021,0c-.006.011-.007.017,0,.022" transform="translate(-6.864 -2.043)"/><path class="cls-1" d="M139.752,5.31c.043-.018.052-.065.079-.1-.018,0-.026,0-.073.022a.131.131,0,0,0,.021-.02.069.069,0,0,0-.02-.013c.02-.034.063-.029.089-.052a.144.144,0,0,1-.058-.009c.034-.034.074-.061.106-.1l-.009-.008-.013,0,0-.012c.046-.012.046-.012.057-.02a.183.183,0,0,0-.075-.018c.047-.022.047-.022.056-.034l-.025.015a.067.067,0,0,1,0-.024l-.009-.008-.012,0c.015-.01.015-.01.043-.044l.009.008a.062.062,0,0,0,.026-.009c0-.019-.017-.034-.018-.054.014-.011.014-.011.033-.042l.007.01,0,.012.013,0c.019-.019.047-.021.068-.037a.06.06,0,0,1,.013-.028c.025.01.018.048.048.055.037-.031.038-.034.049-.054,0-.009,0-.009-.025-.027,0-.054.06-.025.06-.025.022.013.059.033.123-.062l-.009-.01c-.023,0-.045,0-.068.007a.142.142,0,0,0,.052-.035.309.309,0,0,0,.053,0c.033-.035.046-.053.036-.074a.071.071,0,0,0-.029,0c.012-.009.026-.014.039-.023a.156.156,0,0,0-.054,0l.007-.011c.026,0,.034-.01.064-.033-.033-.019-.065,0-.1,0l-.006-.012c.054-.034.142,0,.172-.08l-.012-.014a.2.2,0,0,0-.107.025c.07-.061.07-.061.1-.074l-.01-.007,0-.013a.146.146,0,0,0,.065-.033.038.038,0,0,1-.016-.017.789.789,0,0,1,.077-.051c0-.054,0-.054.014-.071.055.05.159-.09.153-.122s-.027-.05-.028-.079a.511.511,0,0,0-.125.052c0,.02,0,.021-.083.072V4.06c.024.023.091.015.078.06a.116.116,0,0,0-.143.012l.007-.011c-.02,0-.02,0-.062.019a.4.4,0,0,0,.048-.032.086.086,0,0,0-.027,0,.288.288,0,0,1,.038-.022.373.373,0,0,0-.122.025c.077-.059.176-.07.256-.12V3.975a.468.468,0,0,1,.1-.063h0a.186.186,0,0,0-.214-.024l-.008-.01a.333.333,0,0,0-.168.068l0,.012a.408.408,0,0,1-.033.025l0-.013c-.015-.01-.015-.01-.08,0-.007.014-.007.014-.06.053l.009.008c-.01.019-.01.019-.066.033.059-.082.1-.136.551-.243-.008-.021-.008-.021-.052-.054-.113-.021-.243,0-.6.167.007.051.007.051.018.058-.017.013-.029.03-.046.042-.019-.017-.008-.04-.013-.061l-.012,0a.866.866,0,0,1-.12.08V4.06a.412.412,0,0,1-.031.028s0,0,.028.024a.18.18,0,0,0,.034-.017c-.089.1-.086.148.012.2a.522.522,0,0,0-.073.11c.168-.031.168-.031.219-.068l0-.01A.06.06,0,0,1,140,4.3a.038.038,0,0,0,.018.015c-.008.013-.009.016-.047.045l.007.009h.012c-.026.034-.068.042-.1.063l.03,0,0,.012-.011.013-.01-.007a.239.239,0,0,0-.028.013c-.006.082-.067.111-.09.1a.054.054,0,0,1-.013-.022c-.029.017-.06.029-.09.045.021.017.041.021.109,0l-.02.018.01.007c-.217.236-.217.236-.3.288-.1.064-.223.032-.328.076-.052.022-.07.081-.116.109-.028-.032-.077-.026-.1-.06s0-.056,0-.071c-.083.053-.191.053-.266.125-.041.04-.022.05.048.085l.055-.035c-.02.034-.019.039-.016.053s.019.006.062,0a.4.4,0,0,1-.056.035.181.181,0,0,0,.088-.024c-.158.122-.172.18-.172.181a.119.119,0,0,0,.032-.005c-.024.018-.039.047-.07.056l-.007-.023c-.035.009-.046.045-.071.064,0,.021,0,.028-.027.062l-.008-.008,0-.012a1.04,1.04,0,0,1-.076.077c.023.024.032.012.082-.054a.041.041,0,0,0,.008.052c-.057.071-.062.082-.071.117s.012.095,0,.143c.03-.024.068-.036.1-.063.093-.088.135-.214.223-.306l.007.01a.507.507,0,0,1-.04.072c.009,0,.009,0,.042-.027-.051.074-.064.169-.134.232h0v0h0l0,0h0l0,0c.03-.014.047-.044.075-.06a.049.049,0,0,0,0,.024c.076-.017.111-.09.173-.125a.646.646,0,0,0-.084.073s.121-.043.121-.092c.017-.008.036-.01.054-.017-.007-.024,0-.033.033-.064.014,0,.019,0,.066-.028a.069.069,0,0,1-.017-.017l.009-.009c.02,0,.021,0,.058-.033l-.01-.006a.174.174,0,0,1,.012-.039l-.006-.01-.01,0c.037-.022.063-.057.1-.078V5.272l.046-.031c-.013,0-.027,0-.041,0,.028-.017.042-.052.077-.06l-.016.02,0,.011a.088.088,0,0,1,.023.007c.048-.015.064-.067.106-.09a.168.168,0,0,0-.023.037l.007.01c.019-.011.035-.026.053-.037l-.009.009a.089.089,0,0,1,.023,0c-.02.017-.034.042-.059.055h.013c-.028.037-.028.037-.05.05l.02.015a.947.947,0,0,1-.163.147h.023c0,.016,0,.018-.026.057a.682.682,0,0,0,.2-.1.167.167,0,0,0-.012.023.052.052,0,0,1,.016.017.618.618,0,0,1,.105-.055l-.008.008.009.009c.041-.008.052-.053.087-.068a.088.088,0,0,0-.014.023c.038.043.094-.04.094-.041l0,0a.031.031,0,0,0,0,.023.038.038,0,0,0,.015,0" transform="translate(-6.864 -2.043)"/><path class="cls-1" d="M140.378,3.535c.024-.009.033-.035.051-.05.007.007.011.008.046-.013l-.008,0c-.038-.026-.053-.022-.1,0,.013-.013.051-.053.007-.052s-.054.025-.082.037c.022-.015.023-.018.025-.024s0,0-.02-.009c-.035.02-.04.025-.047.038s-.011.021-.1.056V3.512c-.007,0-.014,0-.021,0v0l.08-.057c-.033-.031-.179.069-.186.088l0,0,.015,0a.781.781,0,0,1-.16.123c-.071.039-.033.043-.013.042.035,0,.052-.037.084-.043-.015.018-.019.026-.019.036.025.025.112,0,.258-.081l-.016,0v0c.014-.016.036-.021.053-.033s0-.021.013-.029l.007-.006c.019.008.053-.019.058.008.04-.022.04-.022.049-.019a.029.029,0,0,0,.024,0" transform="translate(-6.864 -2.043)"/><path class="cls-1" d="M134.138,8.512c-.093.067-.263.168-.245.069a.315.315,0,0,1,.028-.072.52.52,0,0,1,.057-.058c-.015.043,0,.043.029.029.075-.036.1-.048.071.039a.034.034,0,0,0,.009-.027c.03-.024.033-.021.046,0s.01.011.024.007l-.019.015" transform="translate(-6.864 -2.043)"/><path class="cls-1" d="M134.5,8.094l.007-.014,0,0a.366.366,0,0,0-.058.063c0-.015,0-.034.036-.076a.173.173,0,0,0-.021.017l0,0c0-.007.121-.152.122-.154l0,0-.008,0,0,0a2.239,2.239,0,0,1-.409.381c.021-.027.024-.03.066-.077.093-.1.114-.133.119-.155-.032,0-.044.043-.078.043.091-.093.2-.167.285-.266a.665.665,0,0,0,.1-.179c-.049.043-.167.134-.167.134.014-.029.044-.043.065-.065-.063.02-.142.1-.379.353-.177.191-.214.221-.246.226a3.9,3.9,0,0,1,.639-.659l0,0c-.034.016-.057.05-.093.063.061-.06.133-.108.2-.165a.1.1,0,0,0-.017.023l.016,0c-.01.011-.021.02-.03.031.029-.016.092-.049.053.087a1.559,1.559,0,0,1-.065.169c.022,0,.067-.054.07-.057l-.013.006c0-.006,0-.006.026-.032h-.009a.065.065,0,0,1,0-.024l0,0-.013,0,0,0,0,0,0,0,0,0,0,0,0,0,0,0,0,0a.031.031,0,0,1-.015.007c-.012-.028.019-.039.023-.06,0,0,0,0-.012,0,.013-.013.029-.022.043-.034-.007.062-.045.206-.045.207l-.132.169a.92.92,0,0,0-.069.085l0,0" transform="translate(-6.864 -2.043)"/><path class="cls-1" d="M135.056,7.281c-.016.016-.036.027-.052.043s-.04.055-.063.08-.046.032-.064.052-.01.015-.01.019v0h0c-.011.006-.013.008-.037.033s-.022.021-.027.02c-.015.016-.013.018-.008.025a.816.816,0,0,1-.066.073.563.563,0,0,1,.054-.062h0v0h0v0h0v0c-.006-.032.037-.06.039-.061.024-.017.024-.022.024-.027,0-.03-.056-.006-.053-.035l0-.015a.5.5,0,0,1,.07-.1h0c0-.008.007-.015.007-.023s-.006,0-.022.017a.258.258,0,0,1,.112-.075c0-.023-.01-.026-.068,0-.025.011-.051.021-.059.014s0-.026,0-.026c.016-.02.041-.029.058-.048-.014,0-.021-.018-.036-.021.093-.072.212-.094.307-.161l-.032.031,0,0c.031-.012.051-.041.08-.056-.019.019-.043.033-.064.051.075-.022.081-.036.087-.048a.046.046,0,0,0-.019.008h0a.067.067,0,0,1,.025-.02l0,0c-.007.039-.053.063-.044.108-.14.153-.173.189-.136.2l-.011.011" transform="translate(-6.864 -2.043)"/><path class="cls-1" d="M136.129,5.861l-.1.085c-.061.053-.117.111-.179.163,0,0-.014.011-.02.009s-.012,0-.038.023c.041-.044.094-.076.132-.123-.019,0-.03.021-.045.032,0-.009.2-.195.2-.2l0,.006c.006,0,.024-.009.028-.03s0-.008.151-.115a.618.618,0,0,1-.134.147" transform="translate(-6.864 -2.043)"/><path class="cls-1" d="M138.061,4.216h0a.048.048,0,0,1,0-.018l0,0a.162.162,0,0,0-.019.018c-.014-.01-.026-.01-.1.01-.029.007-.083.02-.091.011s0-.041.1-.135c-.02.025-.018.03-.016.036.025.006.049-.009.074-.006L138.166,4c-.171.156-.171.156-.18.174s0,.023.042.014.042-.009.049,0,0,.025-.016.028" transform="translate(-6.864 -2.043)"/><path class="cls-1" d="M138.9,3.573l-.01,0c-.012,0-.025.019-.038.025s-.042.007-.062.017a.113.113,0,0,0-.028.022c.019-.031.02-.034.02-.044-.016-.007-.058.017-.152.072a.812.812,0,0,1,.074-.045c-.011,0-.031.01-.035-.007a.124.124,0,0,1,.049-.011l.013,0a.221.221,0,0,0,.043-.041l0,0c-.027,0-.046.026-.074.02,0-.01.05-.05.051-.051l.017-.007c.016-.006.034,0,.051-.008s.032-.023.053-.026c0,.013-.021.014-.017.029a.232.232,0,0,0,.08-.064c.012-.016-.009-.03,0-.046.051-.019.061-.013.056.029s0,.045.018.051c-.028.012-.033.014-.045.009s-.043.01-.043.01c-.027.018-.062.052-.03.064l.014,0h0" transform="translate(-6.864 -2.043)"/><path class="cls-1" d="M137.042,7.65c.028-.026.033-.031.061-.115l-.041-.02a.626.626,0,0,0,.1-.107l-.019-.045c.091,0,.091,0,.133-.1l-.037-.022a.176.176,0,0,1,.048-.069l-.023-.037.031-.032-.038-.018c.039-.025.073-.057.111-.084-.024-.074-.024-.074.232-.254,0-.049.043-.078.064-.118a3.244,3.244,0,0,0,.3-.276l.009,0h0c.069-.065.249-.257.251-.259-.212.055-.381.227-.612.23.043-.041.069-.1.109-.139l-.034-.027a.342.342,0,0,1,.086-.047,3.01,3.01,0,0,1,.411-.293l-.048.016H138.1l.037-.028c-.016-.039-.026-.063.043-.122l.011-.008,0,0h0v0h0v0h0c.056-.067.1-.144.15-.213a.155.155,0,0,1-.088,0,.742.742,0,0,0-.015-.133c-.772.06-.923,1.154-1.781,1.07a6.182,6.182,0,0,1-.677.569l.032-.038a.187.187,0,0,0-.084.034,2.489,2.489,0,0,1,.8-.754c.032-.263.3-.4.349-.654l-.029-.033a3.493,3.493,0,0,0,.63-.517,2.074,2.074,0,0,0,.467-.185l-.028.031c.042-.025.093-.029.136-.053l.04.026c.1-.047.1-.049.124-.1h0l.032-.04,0,.046.036.023.062-.027.013.043a5.475,5.475,0,0,0,.557-.223l.039.019a1.921,1.921,0,0,0-.151.174,1.513,1.513,0,0,0,.143-.12l-.024.038a.549.549,0,0,0,.095-.058L139,4.636c.272.066.43-.184.658-.238a.221.221,0,0,1,.054-.074l.018-.013h0a.253.253,0,0,0,0-.091l-.011-.023h0a2.788,2.788,0,0,1-.4.181l.032-.038c-.082.01-.139.075-.217.095.072-.175.265-.174.391-.271a.672.672,0,0,0-.209.059c.052-.051.124-.073.174-.125l.045.006c.022-.01.022-.01.022-.011h0l-.009-.042c.2-.21.2-.21,1-.371a.668.668,0,0,0-.019-.114l-.039-.019c-.394.149-.764.351-1.151.514l.042,0c-.133.066-.286.073-.416.148l.069-.051-.041.012a2.5,2.5,0,0,0,.232-.141c.13.015.135.015.3-.15-.057-.012-.057-.012-.437.207l.031-.048a.337.337,0,0,0-.045-.078c.014-.043.05-.077.055-.125a1.316,1.316,0,0,0,.179-.143c-.054-.009-.054-.009-.412.172.016-.032.016-.032.149-.111L139,3.763l.01-.006.01-.007.01-.006.009-.006.01-.007.01-.006.01-.006.009-.006c.045-.114.045-.114.485-.523l-.028-.032.036-.026.012-.006h0l.1-.05a.642.642,0,0,0-.1.024,1.365,1.365,0,0,1,.193-.132.425.425,0,0,1-.087.021.367.367,0,0,0,.057-.068l-.038-.031.032-.029-.044-.014-.076.047c.36-.283.748-.526,1.12-.792-.377.222-.885.509-1.253.745A22.919,22.919,0,0,0,136.564,5.1a21.688,21.688,0,0,0-2.439,2.635c-.374.516-.879,1.2-1.228,1.733a1.657,1.657,0,0,0-.288.961,1.115,1.115,0,0,1,.208-.122c.017-.111.152-.132.177-.235l0,.042a1.335,1.335,0,0,0,.2-.342l-.018.04a4.515,4.515,0,0,1,.405-.468c-.126.153-.244.312-.37.465a1.013,1.013,0,0,0,.144-.133l-.03.037a1.229,1.229,0,0,0,.233-.295.336.336,0,0,1-.057.1,1.28,1.28,0,0,0,.323-.321l.009.046a.217.217,0,0,0,.1,0l.022-.04-.051-.008.02-.045a.168.168,0,0,1,.078.058c.022-.021.052-.05.075-.07l-.026.043.044-.007-.031.034.051,0c.02-.023.047-.055.065-.081a.44.44,0,0,1-.076.067c.05-.082.05-.082.419-.407l.043.013.074-.068,0,.042.032-.03-.024.035c.063-.046.148-.045.207-.1.056.048.075.048.2,0l-.084.065.045.012,0,.046h0l-.043.009.019-.042c-.245.072-.3.089-.394.294a.421.421,0,0,0,.245-.128l.008.045c.3-.061.3-.061.315-.09.064.02.064.02.347-.269a.8.8,0,0,0-.329.226l0-.042c-.1-.1-.023-.164,0-.183l-.016-.04a.782.782,0,0,1,.314-.315c-.036-.028-.053-.041-.023-.113.156.1.281-.088.281-.138,0-.135,0-.135-.653.106.272-.132.552-.249.818-.394.241.309.322.413.986.06l.008-.042a.5.5,0,0,0,.143-.095" transform="translate(-6.864 -2.043)"/><path class="cls-1" d="M141.623,4.475l.022-.017h0a.048.048,0,0,1-.03,0c-.021.024.009.021.009.021" transform="translate(-6.864 -2.043)"/><path class="cls-1" d="M139.573,3.74l.016-.008V3.726l-.013,0a.125.125,0,0,1,.036-.022l0-.009a.855.855,0,0,1,.076-.067.258.258,0,0,0-.041.02c.069-.07.069-.07.39-.219.154-.072.192-.123.2-.142l0-.009c-.13,0-.218.114-.342.134l0,0c0-.006.007-.011.147-.074a.358.358,0,0,0,.114-.094l-.007,0a.8.8,0,0,1-.115.063c.01-.01.034-.009.03-.029-.015,0-.03,0-.045,0,.125-.059.125-.059.124-.086-.016-.01-.036,0-.052-.012l0-.006s.123-.017.126-.064c-.015-.017-.07-.009-.055-.037.028,0,.047.037.08.022,0,0,.151-.084.168-.131l0-.008a.057.057,0,0,0-.033,0c.066-.051.105-.1.107-.133-.008-.014-.015-.015-.048-.008-.051.01-.094.046-.148.049a1.509,1.509,0,0,0-.173.037c-.028.006-.066.017-.1.027l0,0c-.033.037-.033.037-.181.119l0,.025c.034.01.039.012.128,0,.136-.023.145-.019.173,0-.057-.011-.095-.006-.113.014h0c-.007.009-.011.014-.027,0s-.069.013-.113.034h.008v.006a.1.1,0,0,1-.026.02c-.027-.008-.034.023-.028.034s.009.017.007.023l-.017,0c-.047-.032-.047-.032-.089-.013,0,0-.076.035-.067.082s.012.065-.068.135c-.018-.041.049-.124-.011-.127-.022,0-.17.072-.185.117a.266.266,0,0,1-.173.133c-.007.089.038.117.177.111-.017.01-.036.014-.053.024,0,.019,0,.026-.025.051l-.006,0a.056.056,0,0,0-.014.093c.05.017.135-.054.136-.054l0-.006-.022,0c0-.007,0-.007.05-.048-.007.014-.021.024-.028.039.023,0,.045-.017.069-.02,0,.012-.02.018-.024.031l0,0-.005.014c.009,0,.013,0,.093-.04" transform="translate(-6.864 -2.043)"/><path class="cls-1" d="M156.49,5.406h0" transform="translate(-6.864 -2.043)"/><path class="cls-1" d="M156.96,5.432l0-.006c-.15-.02-.3-.012-.451-.019v0c-.018.013-.018.013.084.063-.1-.01-.2-.07-.308-.048a.05.05,0,0,0-.038.052.6.6,0,0,0,.464.146s0,0-.031-.039c.008-.011.046-.016.125-.017.249,0,.189-.109.173-.11-.038,0-.038,0-.035-.017s.015,0,.022,0V5.432" transform="translate(-6.864 -2.043)"/><path class="cls-1" d="M140.97,3.3,141,3.285h0v0c.006-.01.018-.016.024-.027s0,0-.052,0c.014-.011.051-.039.034-.061a.053.053,0,0,0-.049,0h0v0h0v0h0v0h0c-.042.025-.081.052-.124.074a.311.311,0,0,1,.071-.055c.028-.017.028-.017.03-.03-.021-.012-.1.032-.149.059.039-.027.054-.042.025-.047a.18.18,0,0,1-.032-.006c-.012.008-.019.02-.031.028a.243.243,0,0,1-.037.016c.012.015.033.016.044.031s.009.014,0,.029c-.007-.006-.017-.015-.047,0-.082.03-.08.044-.08.05,0,.021.029.026.033.047a.169.169,0,0,1,.036-.02c-.006.007-.018.008-.018.02.06-.031.078-.04.093-.033a.02.02,0,0,0,.015,0c.014,0,.03-.02.044-.025l.019,0a.88.88,0,0,0,.125-.046" transform="translate(-6.864 -2.043)"/><path class="cls-1" d="M140.725,3.169c.029-.011.067-.025.074-.049l0,0c-.009,0-.021,0-.068.012.028-.016.049-.044.079-.059l.132-.05-.007-.007c-.014-.006-.033-.015-.123.006a.018.018,0,0,0-.007.011.056.056,0,0,1-.037.025c-.036-.009-.039-.01-.046.007s-.033.039-.05.034-.006-.014,0-.025,0-.024-.007-.027a.763.763,0,0,0,.139-.083c0-.013,0-.018-.018-.021.018-.009.042-.005.055-.024a.022.022,0,0,0-.017-.029.506.506,0,0,0-.172.017s0,0,0,.01,0,.015-.013.022c-.008-.032-.008-.032-.009-.033s-.046,0-.061.028c0,0-.011.019.014.012-.047.025-.047.025-.046.034s.006,0,.033-.008c-.036.022-.038.026-.037.031.019.006.037-.013.056,0-.006.013-.041.024-.024.033s.023.02,0,.042c-.029-.035-.038-.045-.079-.052-.053.045-.1.086-.017.1.1.013.1.013.108.019-.048.051-.009.061.019.062a.382.382,0,0,0,.136-.028" transform="translate(-6.864 -2.043)"/><path class="cls-1" d="M141.107,3.805c.043-.025.041-.058.034-.06a.071.071,0,0,0-.02,0c.014-.008.029-.015.043-.024a.226.226,0,0,0-.208-.074c.008-.062.008-.062-.03-.056.014-.009.025-.02.038-.03l0,0a.491.491,0,0,0-.051.015.041.041,0,0,1,.037-.021c.009,0,.017,0,.035-.017,0-.013.01-.022.042-.048.008.007.009.021.022.022a.114.114,0,0,0,.045-.017c-.013,0,0-.019,0-.029.015-.013.047-.01.046-.037s-.038-.02-.048-.039c.034-.027.081-.063.048-.1-.025-.015-.048,0-.073.01l0,0,.007-.012h0l-.023.011c0,.014-.012.026-.085.074.027.006.038.039.068.039a.363.363,0,0,1-.147.078.693.693,0,0,0-.191.082c-.009.036-.011.094.079.076-.02.011-.042.013-.061.025.026.028.028.072.066.091a.165.165,0,0,0,.124,0,.353.353,0,0,0-.057.038c0,.01-.008.036.038.046a.577.577,0,0,0,.134,0l.034-.034c.008.006.019.014.066-.013" transform="translate(-6.864 -2.043)"/><path class="cls-1" d="M140.989,2.84l0,0c.029-.039.026-.05.021-.065s-.048-.031-.161-.036a.429.429,0,0,1-.088-.008c0,.009-.005.009-.011.01a.063.063,0,0,0-.03.01c.006,0,.014,0,.009.019s0,.018.013.016c-.017.01-.037.015-.055.025.013.014.039.011.11-.016-.049.025-.049.025-.056.032.033,0,.065-.015.1-.018s.023,0,.029.006c-.009,0-.019,0-.029,0a.243.243,0,0,0-.041.018s-.015.014-.006.018.078-.018.066.011a.356.356,0,0,1,.041-.017c.01,0,.023,0,.032-.006l.026-.017a.148.148,0,0,1,.029.012" transform="translate(-6.864 -2.043)"/><path class="cls-1" d="M158.223,9.926c-.021.035-.017.066-.006.142-.09.069-.09.069-.078.124-.066-.008-.066-.008-.076.011a.909.909,0,0,1,.061.134.272.272,0,0,1-.171.087.32.32,0,0,1-.15-.015c.384-.078.215-.76.031-.993.007-.012.011-.019.057-.022a3.21,3.21,0,0,1,.3.421l0,.005a.079.079,0,0,1-.024-.014c-.056.019-.009.091-.008.091.026.013.065-.023.081.012l-.012.017" transform="translate(-6.864 -2.043)"/><polyline class="cls-1" points="151.02 3.818 151.019 3.817 151.02 3.818"/><path class="cls-1" d="M157.942,5.9v0l-.057-.036.007.01c.011.015.029.039.051.029" transform="translate(-6.864 -2.043)"/><path class="cls-1" d="M162.839,5.978l-.323-.166.07,0c-.2-.172-.2-.172-.529-.156l.062.008a.471.471,0,0,1-.13,0,1.406,1.406,0,0,0,.2.115,5.633,5.633,0,0,0-1.96-.117c.07.082.07.082.318.148-.315.181-.67.065-1,.136a.633.633,0,0,0-.351-.14l-1.243.007a.14.14,0,0,0-.014.087h0l.01.023-.062.015,0-.068-.028-.024a2.774,2.774,0,0,0-.611-.006l.059.03-.046.043.041.058.056-.027L157.38,6a.868.868,0,0,1,.14.051c-.04,0-.092,0-.132,0l.034.058c-.1-.009-.193-.025-.291-.032l-.036.055a.54.54,0,0,1-.24-.03.28.28,0,0,0,.071.125l-.039.047c-.275-.049-.307-.083-.351-.131a.468.468,0,0,1-.14-.018l.063-.006-.046-.059c-.269-.011-.516-.164-.793-.116.027.027.066.061.1.085a4.061,4.061,0,0,1-1.055-.026c-.1.062-.206-.015-.309.007l.029.054.058-.022c-.049.051-.076.079-.291.126l-.011.06-.007-.067c.162-.179.162-.179.17-.231a.377.377,0,0,0,.118-.127.711.711,0,0,0-.766-.166l-.032-.057c-.155-.042-.417-.1-.417-.1-.083.029-.156.086-.031.187-.122.023-.232.083-.351.114a.245.245,0,0,0-.127-.035c.423,2.713.79,6.115,1.043,9.814,1.952-.069,3.9-.237,5.76-.488a39.885,39.885,0,0,0,4.327-.807.951.951,0,0,0-.417-.25.536.536,0,0,1-.024-.332l-.052-.032.06.019a.505.505,0,0,0-.017-.145c.1-.129.1-.129.144-.144a.33.33,0,0,0-.032-.141,2.208,2.208,0,0,0-.39-.007.494.494,0,0,0-.02.148l-.057.035a.966.966,0,0,1-.248-.193.309.309,0,0,1-.355-.241.3.3,0,0,0,.188-.042.583.583,0,0,0-.053-.13.483.483,0,0,0,.042-.355.225.225,0,0,1,.279.265,1.143,1.143,0,0,0,.123.082.219.219,0,0,1-.018.126l.053.031c.073-.257.073-.257.388-.351a.527.527,0,0,1,.242.395l.009,0,.008,0,.009,0,.008,0,.009,0,.008,0,.009,0,.008,0,.025.057.065.011.028-.06a.81.81,0,0,1,.307.164.269.269,0,0,0-.028.118c.236.053.423.555.423.559l.067.018.049-.039-.017-.06.058.035.019-.065-.044-.06a.279.279,0,0,1,.122-.013l-.014-.064.061-.013a.325.325,0,0,0-.073-.238c-.259-.355-.731-.448-.99-.8-.114-.155.082-.352-.067-.5a.289.289,0,0,1-.089-.295c-.02-.032-.019-.033-.017-.033l.006,0h.006l0,0,.006,0h0l.006,0h.006a1.2,1.2,0,0,1-.06-.138l.06-.025c.256.2.284-.128.284-.132a5.456,5.456,0,0,0-.525-1.285c-.2-.327-.571-.5-.779-.822-.288-.037-.46-.365-.784-.314.011.04.029.092.044.13l-.029.054a1.391,1.391,0,0,0-.164-.132l.017.06c-.016,0-.016,0-.233-.126-.059.051-.065.056-.183.021-.384-1.137-.384-1.137-.038-1.1.063-.068.16-.06.233-.1l-.048-.047a.58.58,0,0,1,.381-.017l-.052.034.048.045c.1-.035.171-.113.267-.151-.177-.123-.321-.284-.486-.421l0-.063a1.179,1.179,0,0,1,.19-.081c.094.067.207.1.3.173,0-.061,0-.061-.074-.2l.06-.022a2.607,2.607,0,0,1-.245-.139c.055-.058.063-.067.174-.033l-.062.01a6.04,6.04,0,0,1,.747.875l-.069,0c.041.085.041.085,1.817,1.274a.92.92,0,0,0-.368-.438l0-.063.061-.006c-.237-.158-.237-.158-.3-.275l.059-.015c-.021-.037-.021-.037-.441-.361.034.018.079.04.114.055-.021-.058-.021-.058-1.018-.657a.637.637,0,0,0,.131,0,.437.437,0,0,1-.055-.125,1.588,1.588,0,0,1,.149.074,1.153,1.153,0,0,0-.064-.12c.025-.029.025-.029.338-.038-.113-.064-.175-.1-.3-.567.042,0,.1,0,.142,0-.039-.053-.039-.053-.707-.277l.063,0c.012-.063.012-.063-.295-.239l.006-.064c.275.142.587-.021.865.1l.013-.012" transform="translate(-6.864 -2.043)"/><path class="cls-1" d="M141.4,3.107a.061.061,0,0,0,.032-.023s0,0,.005-.027c0,0,.011,0,.033-.01s.012-.036-.018-.029l.007,0,.006,0,.007,0,.007,0,.007,0,.007,0,.007,0,.008,0c0-.025,0-.03-.009-.041a.086.086,0,0,0-.085.01c0,.005.006,0,.007.008a.055.055,0,0,1-.014.01c0-.016-.033,0-.034,0s0,.006.007.006l.016,0c.015,0,.016,0,.017,0s0,0-.012.013-.012,0-.019,0v.009l-.009.007c-.006-.012-.009-.009-.029.013-.007,0-.01,0,0-.017s.009-.022-.008-.019c-.053.012-.054.041-.049.05s.017.015.02.025a.02.02,0,0,1,0,.02c-.009.017-.009.017-.074.054.006.014.013.031.042.025s.022,0,.085-.045c.015-.009.033-.006.048-.012" transform="translate(-6.864 -2.043)"/><path class="cls-1" d="M153.2,5.358l.008-.009a.86.86,0,0,0-.186-.06.087.087,0,0,0-.1.041.34.34,0,0,1-.016-.077.137.137,0,0,0-.058,0,.24.24,0,0,0-.064.02c0,.063.021.124.021.188.093-.021.19-.018.283-.041a.235.235,0,0,0,.108-.058" transform="translate(-6.864 -2.043)"/><path class="cls-1" d="M152.718,5.317l0,0c-.056-.026-.088-.08-.134-.118l.025.151a.282.282,0,0,0,.106-.031" transform="translate(-6.864 -2.043)"/><path class="cls-1" d="M141.781,4.353q.494-.376,1-.725h-.03c-.093,0-.223.006-.223.006s-.03.024-.015.039.036.012.05.025a.471.471,0,0,1-.385.014c-.336-.107-.384.1-.23.161l.055.024c-.105.011-.193-.073-.3-.055a.067.067,0,0,0-.014.04c0,.017.014.031.015.049-.029.012-.068-.012-.09.025s-.014.05.018.1a.107.107,0,0,0,.016-.014c0-.015,0-.015.021-.03.018.025.018.026.063.022-.014.01-.033.012-.048.021.2.023.218.093.19.223a.083.083,0,0,1-.051,0,.187.187,0,0,0-.047.072" transform="translate(-6.864 -2.043)"/><path class="cls-1" d="M141.822,3.369c.023-.013.041-.031.063-.044,0-.005-.008-.006-.028,0,.008-.01.024-.009.03-.022v0c-.01-.006-.019,0-.029,0s0,0,.01-.012a.148.148,0,0,0,.068-.02s0-.01.008-.012c.022-.017.064-.006.068-.044,0-.005-.007-.008-.045,0s-.033.01-.039.009c0-.033.041-.022.062-.033-.015-.034.015-.058.092-.1,0-.041,0-.041-.007-.045a.028.028,0,0,0-.016,0c-.019,0-.03.022-.049.022S142,3.056,142,3.056a.036.036,0,0,0-.037-.014.2.2,0,0,0-.044.013v0l.01,0c0,.006-.007.009-.026.019.012-.023-.009-.023-.042-.023s-.033,0-.03-.011c-.038.02-.038.02-.033.034a.063.063,0,0,1-.012.011c-.014,0,0-.022-.007-.032a.316.316,0,0,0-.108.067c0-.007-.007-.009-.036.006l0,0c0,.006,0,.007-.024.018a.119.119,0,0,0,.048.008l-.029.014c.014.007.031,0,.045.009s.006.012,0,.02-.008-.005-.02,0,0,.008-.008.013c-.05-.04-.05-.04-.087-.026,0,0-.118.068-.118.106s.054.018.047.049c.023-.013.04-.039.071-.04l-.028.022c-.029.021-.032.024-.032.03a.224.224,0,0,0,.1-.031c-.021.024-.021.024-.021.027s.017,0,.055-.02a.1.1,0,0,1,.043-.016.521.521,0,0,0-.057.03.5.5,0,0,1,.2.015" transform="translate(-6.864 -2.043)"/><path class="cls-1" d="M142.887,3.56c.059-.041.12-.081.18-.12a.224.224,0,0,0-.073-.063.221.221,0,0,0-.074-.018c-.015-.033-.015-.033-.17-.1,0,.021,0,.022-.021.038,0-.056-.005-.1-.1-.063.016-.016.016-.017.012-.031-.021-.013-.021-.013-.055.018.013-.052-.1-.019-.133-.007,0-.06,0-.06-.3-.136-.012.047-.012.047-.011.053-.068.014-.11.022-.092.095a.051.051,0,0,0,.034,0l-.018.008s-.009.085.1.051a.064.064,0,0,0-.024.031c.024.046.083.011.11.047-.062.014-.113-.033-.173-.032-.067.068-.067.068-.1.076.123-.107.058-.142.022-.142a.3.3,0,0,0-.12.039.047.047,0,0,1,.014.014c-.021.065-.1.029-.131.08,0,.015.019.02.028.03l0,.012c-.044-.013-.057-.068-.1-.075a.331.331,0,0,0-.174.034c.03.02.031.028.034.054l-.009-.008s-.082.037-.087.062l.008.01-.007.015c-.04-.031-.04-.031.037-.092-.012-.054-.03-.045-.143.01l.005.009a.167.167,0,0,1-.024.016.192.192,0,0,0-.18-.01l.035-.017,0-.01-.008-.009a.079.079,0,0,0-.046.017c0,.109-.006.158.135.143-.024.026-.026.032-.028.043.018.02.049.006.068.023,0,.008,0,.008-.074.049.2.019.2.019.288-.017-.02-.01-.04,0-.059,0,.019-.022.051-.026.069-.049a.148.148,0,0,0,.176-.034c.04.068.124.055.3,0,0-.011,0-.011,0-.036l.009-.016c.008,0,.018,0,.021.018.006.047.065.015.072,0a.138.138,0,0,0-.041-.011l0-.01.007-.01c.011,0,.011,0,.031-.011.018.041.066.035.094.06a.492.492,0,0,0,.056-.029c.07.026.07.026.611.019l.02-.013.01-.006" transform="translate(-6.864 -2.043)"/><path class="cls-1" d="M150.506,14.635c-.187-.025-.364.149-.557.029-.063-.04-.1-.105-.161-.149-.093-.069-.219-.087-.291-.188s-.051-.16-.024-.336c.027.029.021.04.008.061.053.014.025-.074.058-.1l.013.01a1.217,1.217,0,0,1,0-.241c.116-.074.155-.027.169-.01-.02-.072-.054-.115-.161-.108-.016-.035-.037-.083-.054-.118-.073-.145-.216-.239-.29-.384a.593.593,0,0,1-.08-.374c0-.017-.027-.03-.04-.043a.538.538,0,0,1-.136-.184c.076-.055.093-.1.148-.272.067.039.119-.051.184-.022a.594.594,0,0,0-.005-.072,2.4,2.4,0,0,1,.405-.247c.058.019.107.056.163.077.165-.1.18.035.2.179s.031.283.185.178a.434.434,0,0,1,.067.132c-.064-.01-.064-.01-.085,0,.006-.012.006-.012.033-.027l.005-.017a3.77,3.77,0,0,0-.433-.069c-.06.008-.148.074-.112.137.017.029.05.042.07.068-.066.062-.124-.038-.191-.023-.032.1.026.108.088.108.127.244.127.244.128.3.073-.011.086.017.12.092a.193.193,0,0,1,.163.034c-.056.269.1.505.118.762.01-.027.01-.027.1-.012-.007.036.034.068.009.105l-.019,0a.148.148,0,0,1,0-.035c-.01.006-.057.039-.018.127.062-.061.108.059.167.079-.021.157-.021.157.063.561h0" transform="translate(-6.864 -2.043)"/><path class="cls-1" d="M148.015,13.28a.429.429,0,0,1-.4.13c-.534-.037-.557-.154-.565-.2,0-.011,0-.026,0-.037-.14,0-.14,0-.159-.034-.063-.106-.268-.085-.335-.077a.58.58,0,0,0-.392.206c-.531-.021-.589-.29-.62-.434.068-.056.068-.056.084-.052a.243.243,0,0,1,.078-.186c.048.03.067,0,.067,0l.119-.394h0l.015.009a.078.078,0,0,1-.015.052.283.283,0,0,0,.121-.02c.038-.141.04-.146.021-.205a.179.179,0,0,0,.093-.034l.032-.025c.049-.04.051-.112.1-.153.033-.027.076,0,.11-.02.023.051.029.056.09.067-.061.036-.061.036-.067.037l0,.014c.015.006.015.006.053-.007.012.033.016.043.17.056h.015c.073.006.073.006.083.015a.108.108,0,0,0,0,.031c-.062.057-.16.058-.21.134a1.01,1.01,0,0,1,.174.087.145.145,0,0,1-.05.13c.054.127.191-.066.292-.022.026-.03.062-.051.088-.082a.2.2,0,0,0,.152.03c.028-.071.028-.071.05-.087-.032-.056-.094,0-.134-.031-.05.029-.05.029-.138.01.029-.082-.062-.133-.055-.209a.453.453,0,0,1,.03.09c.037-.031,0-.068.008-.1a1.881,1.881,0,0,1,.757-.207.366.366,0,0,1-.258.128c0,.071.075.089.107.138a.177.177,0,0,0-.143.21.478.478,0,0,1-.148-.04c-.007.019,0,.04-.01.059l-.026.011c.3.2.536.491.833.7.026.152.038.222-.016.309" transform="translate(-6.864 -2.043)"/><path class="cls-1" d="M147.067,8.485a1.015,1.015,0,0,0-.064.1c-.033,0-.049-.045-.086-.032-.014,0-.021.027-.035.075-.009,0-.013,0-.018-.008s-.011-.015-.02,0a.5.5,0,0,0-.1-.275.43.43,0,0,1,.126-.12c.134.11.134.11.162.147.009.013.055.077.033.112" transform="translate(-6.864 -2.043)"/><path class="cls-1" d="M144.61,13.655l0-.007-.013.016.01-.009" transform="translate(-6.864 -2.043)"/><path class="cls-1" d="M153.792,15.519c-.253-3.7-.619-7.089-1.058-9.8h-.017a4.779,4.779,0,0,0-.453.174l0,.076-.073-.025a2.144,2.144,0,0,0,.186.157,5.056,5.056,0,0,1-.559.057c.043.123.043.123.321.28-.164.032-.316-.122-.485-.034l.073.031a.848.848,0,0,1-.151-.006l.034.091c.2.063.2.063.23.084-.3-.052-.3-.052-.317-.058-.054-.188-.054-.188-.129-.259l.031.076a.67.67,0,0,1-.114.118l.008.082c.023.014.056.031.078.047.1.074.038.225.139.3.158.118.4.02.533.2l-.05.061a.55.55,0,0,0,.158.072.848.848,0,0,1-.165-.034c-.036-.206-.216-.279-.357-.144.032.039.073.093.1.133a.539.539,0,0,0-.031.173.373.373,0,0,0-.115.119.542.542,0,0,1-.388-.081c.149.006.149.006.368-.2a6.725,6.725,0,0,0-.421-.907c-.106-.015-.213-.025-.319-.038a1.826,1.826,0,0,1-.14.387c.073.044.117.07.073.206.118.017.193.111.293.161l-.017.079c-.88-.259-.88-.259-.924-.234a.271.271,0,0,1,.057.143l-.072.03c-.214-.143-.41.069-.619.032a.225.225,0,0,1,.062-.126,2.88,2.88,0,0,0-.618.223c-.046.019-.047.025-.048.031l0,.016,0,.017,0,.017,0,.017,0,.016,0,.017,0,.017c-.2.019-.226-.053-.26-.144a.392.392,0,0,1,.147-.036c-.007-.112-.011-.168-.307-.181a.228.228,0,0,1,.019.273l.056.066a1.116,1.116,0,0,1-.029.153c-.156-.1-.215-.134-.49.1a1.3,1.3,0,0,1,.062.182,1.557,1.557,0,0,0-.233-.049.3.3,0,0,0-.122-.1l-.062.044.011.084a.69.69,0,0,1,.124.105c-.053.022-.053.022-.342-.134a.3.3,0,0,0-.012-.151.242.242,0,0,0,.04-.148c-.074-.043-.116-.12-.181-.173.2.012.345.191.55.195a.411.411,0,0,0,.38-.176c-.042-.086-.139-.285-.792-.49l-.014-.032h0c-.018-.02-.015-.02-.012-.02h.057l-.049-.059a1.842,1.842,0,0,1-.225-.01.8.8,0,0,1,.108-.1.571.571,0,0,0-.136-.092l-.07.028.027-.07-.072-.02c-.035.028-.08.068-.112.1l.011-.074a.624.624,0,0,0-.158.1l.047-.077-.059-.054c-.07.043-.137.09-.205.136-.111-.065-.111-.065-.292.062l.034-.069c-.235.055-.235.055-.317.044a.3.3,0,0,0-.082.135,2.666,2.666,0,0,0-.966.735c-.013,0-1.163.458-1.092.831a.393.393,0,0,0-.118.1l.072.023a.247.247,0,0,1-.1.1l-.005.091a1.527,1.527,0,0,1,.1.124c.138,0,.2-.007.408-.184l.075.009.049-.059c.009.058.011.058.014.059h.047a.8.8,0,0,0-.05.6c-.1.1-.305.073-.352.255l.058.05-.069.026.01.078.146-.049a.557.557,0,0,1,.1-.224c.019.046.046.105.068.149.581-.028.668-.642,1.061-.893-.019-.139-.042-.159-.106-.212-.008-.144.107-.244.133-.375A4.774,4.774,0,0,0,146,7.54l-.012-.079c.063-.06.135-.109.193-.175.195.038.195.038.268.1l-.034.119c-.567.263-.567.263-.71.86.042.02.1.049.136.073v.077c.241.013.474-.065.714-.066l.034.085.094.032c-.078.012-.15.048-.229.055l-.038.068c-.347-.106-.421-.072-.585,0-.006.055-.012.129-.016.185l.077.013a1.754,1.754,0,0,1-.072.257l-.073.023a.422.422,0,0,1-.094-.161l-.09-.015c-.2.153-.107.579-.455.58-.063.114-.093.124-.2.114l-.031-.087c-.237-.08-.443.171-.683.064a.271.271,0,0,0,.016-.141l-.057.056c-.111-.014-.111-.014-.267.072l-.071-.031.059-.044a.371.371,0,0,1-.093-.122c-.019-.051-.017-.05-.015-.05h.042l-.046-.062.042-.063.024.071.071.022.049-.062a.215.215,0,0,0-.1-.093c.069-.033.12-.1.2-.113-.013-.087-.013-.087.11-.32-.357.12-.387.129-.469.3l0,.01h0a3.6,3.6,0,0,0-.141.52c-.091.031-.091.031-.222-.024l-.055.061c-.408-.007-1.4.788-1.407.8a.7.7,0,0,1-.142-.04l.017-.084-.073-.01c-.031.074-.05.152-.079.227a.562.562,0,0,1-.158.016l-.034-.071c-.222.018-.222.018-.283.046l.016.075-.063.021h0l.024.073c.15.034.15.034.22.516l-.07.088.035.065c-.2.125-.195.438-.458.507-.007-.005-.666-.462-1.052-.141a2.732,2.732,0,0,1-.59,1.07c.018.176.018.176-.12.467a.276.276,0,0,1,.149.035.367.367,0,0,1,.168,0c.027.108.03.221.059.329a2.34,2.34,0,0,0,1.241-.51.3.3,0,0,1,.068-.285l.991-.821c.3.163.383.207.865-.1.275.254.212.646.382.942a.286.286,0,0,1,.135.054.616.616,0,0,0,.038.146h.076a.635.635,0,0,0,.038.156l.075.018c0,.118.009.235,0,.352a.272.272,0,0,0-.1.12c-.373.046-.373.046-.445-.045a.335.335,0,0,1-.145.037l-.041.066a1.671,1.671,0,0,0,.347.342l.074-.028c.077-.239.077-.239.141-.315.021.05.025.05.028.051h.011l.01,0h.01l.011,0h.01l.01,0h.011a.867.867,0,0,1,.189-.246c.061,0,.063-.008.064-.013l0-.017,0-.017,0-.016,0-.017,0-.017.005-.016,0-.017c-.063-.067-.136-.144.059-.3a.5.5,0,0,0,.123.1l.011.087.076-.031c-.01-.227-.232-.309-.327-.478l.063-.058c-.2-.07-.33-.117-.284-.519-.084-.09-.084-.09-.074-.492a.893.893,0,0,1,.228-.055.278.278,0,0,0-.019.225l.068-.042v.08a.439.439,0,0,0,.049-.144,1.832,1.832,0,0,0,.167.508l.009.082a.615.615,0,0,0,.142.067l-.082,0c.357.2.089.611.291.862l-.043.061.015.076c.084.04.084.04.126.2l-.052.056.076,0,.006.075.074.02a.816.816,0,0,0-.088.144c.061.1.021.215.075.313l.029-.073a.426.426,0,0,1,.053.155l.042-.073.025-.007h0l.029.071a.339.339,0,0,0,.027-.242l.06.046.069-.039a.416.416,0,0,1-.061-.138.313.313,0,0,1,.146.054.316.316,0,0,0,.026-.154l.049.074a.95.95,0,0,0,.018-.169c-.075-.026-.122-.092-.189-.129v-.075l.051.034c-.054-.322-.054-.322.019-.375,0,.1,0,.1.094.209l-.039-.069.069.037,0-.087.073.046a.541.541,0,0,1-.057-.151.492.492,0,0,1,.485.084c-.058.058-.084.085-.115.286l.076.014a2.126,2.126,0,0,0,.026.293l-.06-.05-.036.067a.282.282,0,0,0,.1.111.6.6,0,0,1,0,.153l.054.06-.06.049a.414.414,0,0,0,.152.032.434.434,0,0,1-.131.065c.129.022.129.022.406.205a.477.477,0,0,1,.155-.013c.018-.047.039-.111.052-.159l.087.006c.173.018.224.232.4.251.149.016.2-.149.333-.172a.3.3,0,0,0,.14.054l.054-.055.059.05c-.256.219-.067.538-.178.79a57.665,57.665,0,0,0,7,.161" transform="translate(-6.864 -2.043)"/><path class="cls-1" d="M150.551,5.688c.01-.008.022-.022.032-.031a.118.118,0,0,0-.129-.065.337.337,0,0,0-.128.036c0,.015,0,.016.01.03-.258.049-.291.055-.377.025-.01.01-.01.01-.009.039l-.007.006s-.212-.01-.243.1c-.011-.014-.054-.025-.068,0a.046.046,0,0,0,.009.015c-.029.024-.056-.009-.085,0-.005.031.036.028.045.049a.038.038,0,0,0-.035.021c.017,0,.036-.008.051.008,0,.006,0,.006-.008.006h-.061a.03.03,0,0,0,0,.021l.008,0c.014.043-.157.129-.158.13.016.021.047.018.064.038l-.007,0,0,.018c-.025,0-.047.023-.074.02-.023.055-.024.059-.074.066-.006.032.031.037.036.062-.017.021-.03.046-.047.068-.021,0-.041-.015-.062-.006-.017.117.03.127.1.13s.1.014.122.063c-.032,0-.032,0-.036.01l.017.007v.009a.11.11,0,0,1-.025.019c.059.026.092.035.132.018a.261.261,0,0,0,.286.012.273.273,0,0,1-.215-.344.348.348,0,0,1,.039-.077c.032-.049.14-.067.1-.14l.008-.007,0,.006c.009,0,.026,0,.058-.05a.047.047,0,0,1-.017-.029l.007-.007c.031.028.055-.027.086-.01a1.4,1.4,0,0,1,.2-.139c.145-.058.318-.028.447-.138" transform="translate(-6.864 -2.043)"/><path class="cls-1" d="M147.178,5.245l.027-.01c-.023-.041-.1,0-.106-.059.018,0,.018,0,.026-.008s0,0-.079-.023c.017-.03.021-.037.015-.049s-.037,0-.047-.024c.012,0,.017,0,.025-.019-.04-.025-.09-.03-.126-.064s-.019-.039-.013-.07c-.025-.022-.046.012-.07.016.007-.022.033-.026.045-.043-.03-.032-.077-.032-.108-.061l0,.006a.052.052,0,0,1-.029.023c-.018.043-.006.093-.029.135-.013-.043,0-.094-.033-.131-.013-.013-.066,0-.08.019s0,.028-.014.034c0-.02-.019-.023-.023-.038.022-.015.052-.014.072-.035-.128-.01-.128-.01-.14,0,0-.006,0-.023-.011-.023-.03,0-.055.018-.084.02-.041.078,0,.08.016.075a.175.175,0,0,0,.024-.011c-.021.025-.054.02-.08.034.023.127.086.16.19.1-.011,0-.011,0-.014-.006l0-.007c.01,0,.017-.014.026-.019.029.046.06.063.136.02-.043.039-.043.039-.046.039a.193.193,0,0,1-.024,0c-.064,0-.126.045-.192.014-.032.044-.027.053.009.059h0c.057.006.029.033.028.033s-.018,0-.026,0-.052-.012-.047.029.043.048.085.067c-.024.05.028.089.076.073.008,0,.016-.01.011-.032a.192.192,0,0,0,.065-.054c.024-.026.049-.053.078-.036.025-.02.033-.051.054-.073h.04c.015-.021.014-.053.045-.063,0,0,.115-.036.132.007-.022,0-.045-.016-.066,0,.025.03.025.075.057.1a.175.175,0,0,0-.084.059.353.353,0,0,0,.134,0,.175.175,0,0,0-.036.053.815.815,0,0,0,.191-.055" transform="translate(-6.864 -2.043)"/><path class="cls-1" d="M147.446,4.972l.039-.022c-.066-.07-.122-.072-.257-.077.044,0,.023-.028.023-.028s-.029-.008-.068.01l.006,0c0,.006,0,.013-.022.038-.019-.021-.019-.021-.151-.087l-.006.007c-.006.008-.006.008,0,.013s.011,0,.014.006l0,.009c-.006,0-.015,0-.023-.013s-.011-.015-.028.006c.016,0,.017.018.011.022h0a.091.091,0,0,0-.1-.013c.026,0,.034.012.038.028-.027,0-.027,0-.032.007.025.036.073.024.1.049-.018,0-.019,0-.026.008a.53.53,0,0,0,.488.033" transform="translate(-6.864 -2.043)"/><path class="cls-1" d="M152.668,5.316l-.026-.151a.134.134,0,0,0-.118-.027c0,.011.008.02.008.03-.03-.009-.03-.009-.037.011a.066.066,0,0,1,0-.04.2.2,0,0,0-.088-.008c.007-.039-.044-.036-.053-.065.016,0,.041.014.049-.008A.625.625,0,0,0,152.126,5a.168.168,0,0,0-.117.067c.011,0,.021-.009.032,0s0,.022.007.032c-.05,0-.062.006-.069.035.021,0,.048-.017.066.009-.009.034-.062-.011-.071.023a.229.229,0,0,0,.229.028.145.145,0,0,1-.006-.03l0,0c.02,0,.044-.025.058,0h0c-.042,0-.01.028-.009.029l.008,0c-.019,0-.019,0-.061.046a3.466,3.466,0,0,0,.475.081" transform="translate(-6.864 -2.043)"/><path class="cls-1" d="M142.951,3.548h0s-.011-.006-.012-.006-.011,0-.007-.008l-.02.013h.038" transform="translate(-6.864 -2.043)"/><path class="cls-1" d="M143.209,3.55c.032-.007.01-.025.01-.025-.025-.018-.025-.018-.025-.023s.016-.019.029-.028a.187.187,0,0,1-.1-.067l-.18.12a.458.458,0,0,0,.267.023" transform="translate(-6.864 -2.043)"/><path class="cls-1" d="M145.23,4.356l.059-.011c-.109-.178-.293-.047-.431-.1h.016c-.1-.023-.187.025-.281.024.179-.053.179-.053.228-.087l-.011-.03a1.009,1.009,0,0,0-.182.015l.022-.022c-.026-.038-.026-.038-.219-.077.173,0,.335.08.51.06a.451.451,0,0,0-.144-.112l.02-.031a.459.459,0,0,1-.117-.059l-.041-.012-.041-.012-.04-.012-.04-.013-.04-.012-.04-.013-.039-.012-.039-.013c-.182.034-.32-.214-.518-.08l.015.031a.446.446,0,0,1-.089-.031l-.029.019c.021.075.021.075,0,.107-.071-.137-.071-.137-.121-.17-.034.016-.059.044-.091.063l-.024-.028,0-.037-.028-.017c-.021.015-.051.033-.073.046a.2.2,0,0,1,.043-.043c-.036-.045-.036-.045-.622-.091-.341.233-.676.474-1.005.726-.023.069-.07.084-.136.1l-.022.017.031,0a.888.888,0,0,1-.2.152l.016.026a.247.247,0,0,1-.106.048.12.12,0,0,0-.051.021l-.178.146c.049,0,.1-.017.145-.026l-.029.01.017.028c-.023.008-.054.018-.077.024l-.014.034.016.036c-.023.046-.069.07-.1.107-.009-.1-.014-.1-.048-.134a1.1,1.1,0,0,0-.091.071.092.092,0,0,0,.034.1.662.662,0,0,1-.092.077.112.112,0,0,0,.058-.02c-.2.145-.236.141-.331.13q-.727.632-1.407,1.326c.024.021.038.05.062.071l-.017.026a.554.554,0,0,1,.018.067l-.031-.009-.031.024a.375.375,0,0,0,0,.105l.03.016a3.664,3.664,0,0,0,.674-.4l0-.031a1.322,1.322,0,0,0,.592-.3l-.014-.031c.153-.108.343-.066.507-.129-.044.032-.094.053-.137.084a1.361,1.361,0,0,0,.915-.286.179.179,0,0,1-.018.074,2.209,2.209,0,0,0,1.049-.115c-.094-.022-.156-.108-.252-.125l.032-.027c.1.01.145-.1.231-.119.007.073-.061.129-.048.2.052.012.052.012.126-.056-.015.017-.034.038-.05.054l.014.028.033,0c.057-.052.111-.107.169-.158l-.024-.019-.029.012c.029-.021.064-.029.095-.048a.142.142,0,0,0-.046,0c.023-.075-.014-.153.011-.227a.115.115,0,0,0,.055-.025l-.025-.02c.032-.028.032-.028.148.032l.023-.023c-.016-.012-.037-.028-.052-.041a.536.536,0,0,0,.06-.024.468.468,0,0,0,.016.067c.055.029.056.03.2.037a.16.16,0,0,1,.048-.042l.007-.032a.187.187,0,0,0-.055-.038l.027-.015c.05.035.05.035.091.036l.017-.028c.039.027.067.039.13-.014l-.019-.027a.164.164,0,0,0,.032-.056l-.015-.027.028-.02a.158.158,0,0,0,.053.035.192.192,0,0,0,.107-.131h.007c-.009-.045-.045-.081-.046-.129.11-.015.24.111.332-.016-.061-.053-.061-.053-.071-.079l.03-.006.044.042a.119.119,0,0,0,.034-.062c-.041-.02-.041-.02-.15,0a.845.845,0,0,1,.389-.143l-.005-.037c.033-.008.033-.008.339-.064L144.9,4.4c.109-.014.218-.021.327-.041" transform="translate(-6.864 -2.043)"/><path class="cls-1" d="M169.605,32.64l.07-.106c-.062.03-.082.095-.123.143.028-.046.058-.09.087-.135h-.006c.009-.027.01-.028.054-.081a.5.5,0,0,0-.04.04,11.54,11.54,0,0,1-.862,1.084,7.118,7.118,0,0,0-.575.632c-.033.049-.079.087-.113.134a.159.159,0,0,0,.078-.056.239.239,0,0,1-.031.047l0,0,0,0,0,0,0,0,0,0,0,0,0,0,0,0c-.012.018-.025.035-.037.052a2.916,2.916,0,0,0,.559-.587,3.349,3.349,0,0,1,.373-.422h0c.162-.254.363-.479.532-.729" transform="translate(-6.864 -2.043)"/><path class="cls-1" d="M167.438,33.881c.008-.014.018-.035.025-.05-.072.061-.312.252-.36.15a.124.124,0,0,0,.018-.014c-.008-.021-.008-.021.013-.048h0a.057.057,0,0,0-.015.012c-.011.015-.009.036-.02.052a.179.179,0,0,1-.028.027,1.574,1.574,0,0,0-.185.249c0,.008-.125.194-.225.389.043-.022.057-.019.065-.007a.853.853,0,0,0,.124-.124c0,.011,0,.011-.056.069.014.007.027-.006.049-.039s.032-.044.04-.034a.706.706,0,0,1,.093-.1l0,0c0,.006,0,.009-.009.028l0,0,0-.013a.407.407,0,0,0-.051.066l0,0,0,0,.005,0,0,0,0,0,0,0,0,0,.005,0a.554.554,0,0,1,.1-.12c.014-.007.019-.013.037-.038-.006,0-.006,0-.021.013l0,0c.05-.043.082-.1.136-.142a.15.15,0,0,1-.023.034,2.966,2.966,0,0,0,.259-.335" transform="translate(-6.864 -2.043)"/><polyline class="cls-1" points="160.141 30.881 160.141 30.881 160.141 30.881"/><polyline class="cls-1" points="160.141 30.882 160.141 30.881 160.141 30.882"/><polyline class="cls-1" points="160.141 30.882 160.141 30.882 160.141 30.882"/><polyline class="cls-1" points="160.141 30.882 160.141 30.882 160.141 30.882"/><polyline class="cls-1" points="160.141 30.882 160.141 30.882 160.141 30.882"/><polyline class="cls-1" points="160.141 30.882 160.141 30.882 160.141 30.882"/><polyline class="cls-1" points="160.141 30.882 160.141 30.882 160.141 30.882"/><polyline class="cls-1" points="160.141 30.882 160.141 30.882 160.141 30.882"/><polyline class="cls-1" points="160.141 30.882 160.141 30.882 160.141 30.882"/><polyline class="cls-1" points="160.141 30.882 160.141 30.882 160.141 30.882"/><polyline class="cls-1" points="160.141 30.882 160.141 30.882 160.141 30.882"/><polyline class="cls-1" points="160.141 30.882 160.141 30.882 160.141 30.882"/><polyline class="cls-1" points="160.141 30.882 160.141 30.882 160.141 30.882"/><polyline class="cls-1" points="160.141 30.883 160.141 30.882 160.141 30.883"/><polyline class="cls-1" points="160.141 30.883 160.141 30.883 160.141 30.883"/><polyline class="cls-1" points="160.141 30.883 160.141 30.883 160.141 30.883"/><polyline class="cls-1" points="160.141 30.883 160.141 30.883 160.141 30.883"/><polyline class="cls-1" points="160.141 30.883 160.141 30.883 160.141 30.883"/><polyline class="cls-1" points="160.141 30.883 160.141 30.883 160.141 30.883"/><polyline class="cls-1" points="160.141 30.883 160.141 30.883 160.141 30.883"/><polyline class="cls-1" points="160.141 30.883 160.141 30.883 160.141 30.883"/><polyline class="cls-1" points="160.141 30.883 160.141 30.883 160.141 30.883"/><polyline class="cls-1" points="160.141 30.883 160.141 30.883 160.141 30.883"/><polyline class="cls-1" points="160.141 30.883 160.141 30.883 160.141 30.883"/><polyline class="cls-1" points="160.141 30.883 160.141 30.883 160.141 30.883"/><polyline class="cls-1" points="160.141 30.883 160.141 30.884 160.141 30.883"/><polyline class="cls-1" points="160.141 30.884 160.141 30.884 160.141 30.884"/><polyline class="cls-1" points="160.141 30.884 160.141 30.884 160.141 30.884"/><polyline class="cls-1" points="160.141 30.884 160.141 30.884 160.141 30.884"/><polyline class="cls-1" points="160.141 30.884 160.141 30.884 160.141 30.884"/><polyline class="cls-1" points="160.142 30.884 160.141 30.884 160.142 30.884 160.142 30.884"/><path class="cls-1" d="M170.458,31.359l.013-.026c-.052.049-.071.123-.123.172,0-.019,0-.038.142-.286h0a.361.361,0,0,1,.019-.043c-.049.067-.075.146-.121.216a3.119,3.119,0,0,0,.265-.571l-.007.008c.013-.042.037-.079.052-.12l-.025.047c-.048.095-.048.095-.22.471a.537.537,0,0,0,.032-.06.534.534,0,0,1-.044.094l.009-.025a6.044,6.044,0,0,1-.487.831c-.009.013-.022.03-.03.044-.03.05-.038.111-.069.161-.071.119-.169.22-.231.346l.01-.005a.238.238,0,0,1-.023.042,15.43,15.43,0,0,0,.841-1.3" transform="translate(-6.864 -2.043)"/><path class="cls-1" d="M164.435,31.529v0c0-.031,0-.053,0-.074v0a.326.326,0,0,0,0,.069" transform="translate(-6.864 -2.043)"/><path class="cls-1" d="M134.282,34.641l.009.011-.064-.08.05.063.005.006" transform="translate(-6.864 -2.043)"/><path class="cls-1" d="M134.877,35.344c-.154-.184-.317-.361-.469-.546l.018.022-.1-.121.532.639h0l.084.1-.147-.169.008.009-.015-.017c.023.027.046.054.07.08l-.007-.008.043.048c-.022-.027-.046-.052-.068-.079a1.088,1.088,0,0,0,.076.079l-.028-.033" transform="translate(-6.864 -2.043)"/><polyline class="cls-1" points="124.773 26.821 124.772 26.816 124.773 26.821"/><path class="cls-1" d="M131.974,25.509c.005-.019,0-.095.009-.113-.052-.028-.066-.047-.116-.075-1.392-.906-2.173-1.63-2.241-2.477.07.58.145,1.356.24,1.933l.011.064c.168.928.331,1.564.4,1.835-.007-.023,0-.017,0-.011l0,.017,0,.017.005.017,0,.017,0,.017,0,.017.005.017c0,.012.339,1.218.87,2.57a20.922,20.922,0,0,0,1.61,3.161c.328.488.755,1.147,1.1,1.621l0,0c-.424-.576-.424-.576-1.136-1.7.021.029.048.068.067.1a1.783,1.783,0,0,0-.112-.191l.031.056c.015.025.014.024.013.023l0,0,0,0,0,0,0,0,0,0,0,0,0,0c-.084-.142-.173-.28-.254-.423.083.124.083.124.119.172a5.09,5.09,0,0,0-.308-.567.659.659,0,0,0,.126.162c.051-.523-.4-.809-.578-1.224.021.04.05.092.073.131s.029.052.03.054l.006,0,0,.006,0,.005.006.006,0,.006.005,0,.006.006a2.6,2.6,0,0,0,.2.259,10.532,10.532,0,0,0-.568-2.173,1.281,1.281,0,0,1,.094-.269.408.408,0,0,1,.089.087c-.01-.035-.023-.082-.031-.117l.038-.046-.029-.059c.079.071.187.093.268.162a.774.774,0,0,0-.026-.134c.278-.367-.042-.726-.017-1.09.034-.495-.155-.964-.161-1.454l.033.064a1.75,1.75,0,0,0,.106-.463" transform="translate(-6.864 -2.043)"/><path class="cls-1" d="M164.985,30.439l.02-.032-.02.032" transform="translate(-6.864 -2.043)"/><path class="cls-1" d="M170.422,29.19l.012-.039a1.294,1.294,0,0,0-.086.167c-.01-.042-.015-.063.018-.3l-.032-.029c.007-.03.017-.07.025-.1l-.03.028c.022-.115.094-.219.068-.343l-.014.086a.184.184,0,0,1-.012-.1.188.188,0,0,0-.043.087c-.07-.2.067-.375.061-.566l-.037.018c0-.064-.039-.12-.034-.185l-.027.031-.009-.044h-.043c-.022-.085.027-.163.024-.245l-.02.035c.088-.31.074-.636.139-.95-.055-.066-.055-.066-.05-.163a.472.472,0,0,0-.087.112,7.74,7.74,0,0,1,0-.987l-.047.024c-.164.538-.224,1.1-.389,1.639a1.288,1.288,0,0,1-.271.515c-.023-.022-.053-.052-.074-.075l.005-.079c-.075-.025-.075-.025-.218-.21a.14.14,0,0,0,.014-.078c-.007.027-.018.062-.027.088v-.053l-.035.02c-.039-.053-.07-.111-.112-.161a1.807,1.807,0,0,1,.162-.371c-.109-.228.134-.332.182-.5l-.043-.027.008-.051c-.019.019-.045.043-.065.06,0,.027,0,.063,0,.09l-.026.032c0-.027,0-.063,0-.091l-.025.036c0-.013,0-.013.041-.15a1.391,1.391,0,0,1-.155.21l-.026-.04-.087,0-.031-.042a.214.214,0,0,1-.09.016.4.4,0,0,1-.047-.089l-.019.044a.21.21,0,0,1-.012-.093c-.04.04-.1.052-.134.1l.028.036.047-.008c.071.1-.016.227-.141.286l-.038-.019-.012-.04c-.025.175-.237.26-.22.455a.375.375,0,0,1-.071.061,1.706,1.706,0,0,1-.126.3c.039.046.039.046.007.159l-.028-.031a.643.643,0,0,0-.041.088V27.7a.167.167,0,0,0-.085-.012.228.228,0,0,0-.034.08l-.006,0h0l-.032.038c.007-.22.007-.22-.109-.331l-.044.006a.326.326,0,0,1-.064.13l.008-.046a.274.274,0,0,0-.061.078.281.281,0,0,0,0-.087,1.4,1.4,0,0,1-.081.219.773.773,0,0,0-.017-.094c-.1.266-.1.266-.095.279a.308.308,0,0,0-.078-.036c.006.042-.016.081-.013.123-.178-.008-.111.226-.174.335l-.03-.03-.037.03-.007-.042a.957.957,0,0,0-.071.108c.006.044.021.086.023.131l-.04.014a.583.583,0,0,1-.021.092c-.024-.026-.054-.059-.033-.239-.011.016-.026.037-.038.052-.205.265-.273.606-.482.868-.125.157-.336.189-.473.329-.332.337-.783.526-1.094.888a.82.82,0,0,0,.039-.134l-.069.1A6.512,6.512,0,0,0,164.6,31.6a.2.2,0,0,1-.051.071.649.649,0,0,1,.009-.1l-.031.033a.248.248,0,0,0,.009-.147c-.044.052-.067.078-.02.207a.3.3,0,0,1-.062.066.563.563,0,0,0-.022-.2c-.013,1.522-.565,1.966-.57,1.968-.062.023-.084.031-.135.187.554.242.84-.351,1.3-.415l-.021.035c.174-.06.174-.06.188-.058a6.341,6.341,0,0,1,1.64-1.03.316.316,0,0,1,.065.076.166.166,0,0,0,.082-.017l.03.032a.159.159,0,0,0,.079-.024l.01.042-.027.031.04-.015a1.755,1.755,0,0,1-.08.163l.036.044a3.571,3.571,0,0,1-.134.38l.036-.031.035.026c.057-.356.408-.463.6-.706-.114.218-.286.4-.412.608l-.007,0-.008,0-.008,0-.008,0-.008,0-.008,0-.007,0-.008,0a.953.953,0,0,1-.061.081c.087-.022.087-.022.331-.326-.031.147-.074.2-.237.389a.521.521,0,0,0,.116-.066c.032.227-.171.364-.213.562l.041,0,.015.04c.117.022.117.022.512-.28a.271.271,0,0,1-.11.135l.043,0,.016.095a9.936,9.936,0,0,0,2.586-3.619c-.015.025-.034.059-.047.086a6.884,6.884,0,0,1,.3-.759" transform="translate(-6.864 -2.043)"/><path class="cls-1" d="M132.21,24.662a3.3,3.3,0,0,0-.137-.887,8.873,8.873,0,0,0,.03,1.389,1.482,1.482,0,0,0,.107-.5" transform="translate(-6.864 -2.043)"/><path class="cls-1" d="M136.527,16.562h0a.327.327,0,0,1-.038.026c.011.014.019,0,.038-.026" transform="translate(-6.864 -2.043)"/><path class="cls-1" d="M153.954,18.217c-.047-.914-.1-1.815-.162-2.7a65.756,65.756,0,0,1-7-.172c-.325.786-.417.808-.767.69l-.017-.092a.641.641,0,0,0-.561.141,2.475,2.475,0,0,0-.777-.269c-.173-.426-.9-.713-1.063-.181a.686.686,0,0,0,0,.235,1,1,0,0,1-.166.145c-.7-.458-.7-.458-.7-.7a4.336,4.336,0,0,1-.677-.407.1.1,0,0,0-.089-.061h-.017c-1.029-.263-2.1-.466-3.054-.7-.583.336-.65,1.351-1.495,1.4a13.094,13.094,0,0,1-.868,1.035c-.438.657-.438.657-.473.782l.047-.085a3.093,3.093,0,0,1-.6,1.791c.169.293-.029.6.04.9a.465.465,0,0,1,.149.111l-.047.09c.671,2.057.671,2.057,1.134,2.468a.93.93,0,0,1,1.092.127c.493-.19,1.137-.368,1.4-.141.184.158.067.442.252.6.156.132.327.009.49.032l.034-.078h0c.191,1.038.191,1.038.132,1.152l.048.083-.064.073.042.084c-.391.856.452,1.338.615,2.027h-.042a3.688,3.688,0,0,1,.262.835l-.077.052c.046.2.115.387.166.582,1.544.23,3.18.407,4.871.529a1.5,1.5,0,0,0-.055-.4,1.011,1.011,0,0,1,.166.351,10.6,10.6,0,0,0,1.471.148c-.037-.4-.388-.743-.246-1.184-.042-.051-.042-.051.192-1.256l2.08-2.22c.18-.276.18-.276.729-2.073l-1.729.381a1.352,1.352,0,0,1-.28-.373l-.093.016a.594.594,0,0,1,.159-.127c-.105-.245-.583-.921-.792-.941l-.027-.1-.067.081c-.62-1.869-.62-1.869-.608-2.129-.649-.617-.546-1.517-.854-2.263.136.156.178.364.3.529l.1,0c.1-.338.1-.338.12-.392a.808.808,0,0,1-.08.353l.093,0c.652,1.017.638,2.353,1.555,3.243v.08c.331.394.09.913.292,1.335a4.546,4.546,0,0,0,2.12-.81c-.06-.484.671-.279.784-.676.224-.02.262-.306.479-.336.065-.422.065-.422.108-.475l.056.077c.071-.224.252-.4.281-.644-.215-.262-.584-.313-.8-.579-.132-.164-.056-.37-.11-.55-.375.541-.375.541-.5.635a3.2,3.2,0,0,1-.5.058l-.031-.1h-.095s.107-.374-.021-.528c-.119.084-.119.084-.115.395a2.836,2.836,0,0,0-.7-1.354.282.282,0,0,0,.077-.165l.1,0,.048-.084a.467.467,0,0,0,.206.029,6.863,6.863,0,0,0,.924,1.031.438.438,0,0,1,.2.042c.181-.066.181-.066.281-.048l.095-.086-.094.016.078-.065c.147.054.147.054.277.415.313.058.629.108.942.171.085-.019.085-.017.085-.015v.041a1.345,1.345,0,0,1,.691-.046.5.5,0,0,1,.425-.068l.036.111a.568.568,0,0,1,.151.105c0-.027.028.056.04.08" transform="translate(-6.864 -2.043)"/><path class="cls-1" d="M165.507,13.774l.027-.009c-.008-.007-.012-.01-.019-.008l-.006,0a.069.069,0,0,0,0,.013" transform="translate(-6.864 -2.043)"/><path class="cls-1" d="M166.321,12.858l.008-.012c-.225-.153-.31-.419-.491-.608l.011-.022c.019,0,.033.01.05.016a1.247,1.247,0,0,0-.187-.279c-.146-.157-.326-.275-.477-.427-.009.005-.009.005-.1-.013l.008.017a.653.653,0,0,0,.06.091c.016-.014.023-.035.039-.049a.745.745,0,0,1,.061.078.2.2,0,0,0-.044-.01l-.007.012a.252.252,0,0,0,.012.029c-.068-.063-.092-.083-.139-.083.024.044.068.072.091.117-.017.009-.04.02.055.1.061.052.067.065.056.109.172.04.317.363.344.427a.092.092,0,0,1,0,.029.212.212,0,0,0,.025.126c.044.089-.017.172-.015.259-.069.008-.083-.065-.13-.089l.011.006.01-.006a.128.128,0,0,0-.029-.1c-.013.006-.013.006-.039.059a.959.959,0,0,1,.074.106l.149.322c.011.034.011.034-.057.087-.019-.021-.033-.045-.052-.066-.065.109-.211.11-.283.211.04.165.027.27-.039.312a.3.3,0,0,0,.076.125c-.053.005-.05.035-.027.088l.1-.034a.224.224,0,0,1-.081-.086c.067.011.14-.048.2.017-.017-.05-.067-.086-.063-.146.089.034.1-.1.18-.093-.023-.155.141-.12.185-.1-.006.092-.007.114.14.216l.088-.032a1.3,1.3,0,0,0-.046-.147c.03-.037.03-.037.052-.037-.035-.077-.2-.1-.149-.2.032.063.036.067.053.082.023,0,.043-.025.068-.007-.015.012-.016.013-.012.038.074-.051.1-.063.148-.055-.052-.122-.049-.125-.034-.147l.012,0c.029.042.059.082.087.125h0c.062-.066-.045-.12-.066-.18l.011-.024c.012,0,.012,0,.057.027,0-.05-.071-.068-.06-.124.025-.011.031,0,.045.016-.019.071.08.144.091.152,0-.035.026-.069.006-.105-.058-.1-.058-.1-.047-.126" transform="translate(-6.864 -2.043)"/><path class="cls-1" d="M150.019,30.031a1.353,1.353,0,0,0-.243-.956h.023a.056.056,0,0,0-.015-.077h-.008c-.039.108-.062.141-.142.153.042.037.042.037.017.249-.111.05-.113.051-.141.121-.056-.074-.056-.074-.07-.079-.064.059.007.169.008.17-.033.012-.033.012-.095.073.012.036.032.095-.061.183.018-.084.018-.084,0-.107-.05.068-.062.153-.106.224l.009-.04a.161.161,0,0,0-.028-.03s-.2.072-.153.2l-.019,0c-.031-.073-.031-.073-.034-.075-.025.009-.025.009-.041.045-.031-.037-.031-.037-.156.048a.069.069,0,0,1-.022-.033.429.429,0,0,1-.227.077.368.368,0,0,1,.008.058c0,.123-.134.19-.14.312-.011.218.126.414.091.635-.031.2-.1.334-.172.343-.112.013-.11.287-.089.372a.6.6,0,0,0,.023.072c.018.044.054.1.073.14.012.028-.017.071-.025.1s-.038.2.216.378c.1.069.1.069.6-.059.587-1.638.587-1.638.615-1.754.02-.082.036-.193.057-.275.017-.066.095-.085.113-.15.031-.113-.079-.237.024-.345a.157.157,0,0,0,.079.154c.01-.037.025-.086.031-.124" transform="translate(-6.864 -2.043)"/><polyline class="cls-1" points="138.888 30.56 138.887 30.534 138.888 30.56"/><path class="cls-1" d="M147.6,29.875a1.617,1.617,0,0,0,.047-.242l-.034,0c.013-.139-.068-.273-.022-.414l-.035.007a.8.8,0,0,1,.051-.068c-.054-.164-.054-.164-.021-.532-.489-.025-4.909-.4-6.453-.626.018.1.074.389-.083.474-.008,0-.656.688.029,1.945.125.23.274.448.385.686.176.381.194.81.356,1.2.236.561.723.984.871,1.593l-.039-.01-.022.031a.944.944,0,0,1,.192.369l-.006-.044c.008-.018.01-.018.012-.018h.048v.009l0,.008v.008l0,.007,0,.008v.008l0,.008,0,.008a.74.74,0,0,1,.1.026c.1.216.535.045.54.043.144-.067.24-.052.589.041.027-.036.049-.065.173-.007a.113.113,0,0,1,.016-.072,1.937,1.937,0,0,0,1.445-1.714v.007l-.019.03a.52.52,0,0,1-.055-.069c.17-.245.579-.155.684-.49l-.034-.005a1.212,1.212,0,0,0-.2-.91c.036-.046.019-.106.038-.157l.016.032c.122-.067.179-.223.335-.242.28-.4.89-.419,1.084-.924" transform="translate(-6.864 -2.043)"/><path class="cls-1" d="M170.192,25.684l.047-.023c0-.015,0-.03,0-.046h0a.041.041,0,0,0-.018.017c-.01.016-.016.035-.025.051" transform="translate(-6.864 -2.043)"/><path class="cls-1" d="M168.077,25.832l.022-.026-.037.013a.8.8,0,0,0-.5.479c-.007-.023-.033-.008-.049-.014s-.144.175-.068.24a.091.091,0,0,0-.058.1,1.828,1.828,0,0,0,.258-.249c.151-.173.282-.363.43-.539" transform="translate(-6.864 -2.043)"/><path class="cls-1" d="M166,26.457l.019-.012c0-.025,0-.025-.081-.108-.054.061-.095.071-.157.039.007-.117,0-.12-.183-.05-.133.053-.153-.049-.107-.121a.267.267,0,0,0,.248-.158c-.182.036-.244.047-.3.12-.068-.054-.144-.065-.3-.043-.022-.139-.089-.04-.089-.039-.028.049.006.123-.065.154-.043.018-.087,0-.13,0-.077.006-.153.022-.231.029a.619.619,0,0,0-.064-.149.12.12,0,0,1-.081.029c-.069-.01-.125-.059-.194-.071-.029.091-.161.061-.207.035l-.026.039a.781.781,0,0,1-.119.258.124.124,0,0,0,0-.027c-.017,0-.028.014-.042.021.08.085.19-.022.273.041-.009.033-.042.054-.043.091.557.062,1.119,0,1.676.061-.025-.157-.025-.157-.018-.171.037.057.129.07.126.16a.329.329,0,0,1,.094-.129" transform="translate(-6.864 -2.043)"/><path class="cls-1" d="M171.446,23.076v-.031c0,.007,0,.007-.011.01s-.01-.006-.008-.047l-.01.007c-.01.022-.008.048-.026.067,0-.033,0-.033-.037-.026,0,.075.017.148.015.223-.042.014-.053.073-.068.156-.012.064-.012.064-.028.074-.043.026-.043.026-.061.052a.282.282,0,0,1,.007-.152h0c-.012.013-.016.017-.021.085-.007.092-.007.092-.059.124s-.082.027-.119.048v.1c.047,0,.062.013.072.071.023-.013.02-.043.04-.058.049.129.147-.067.166-.107a.638.638,0,0,0,.058-.182c.04,0,.061-.072.061-.073.011-.048-.015-.093-.013-.14a.017.017,0,0,0,.015.005c.02-.025.023-.044.031-.2" transform="translate(-6.864 -2.043)"/><path class="cls-1" d="M171.188,24.954c-.065.012-.09.017-.1-.071.023-.013.033-.021.035-.067-.054.024-.062.027-.074,0-.022-.048.027-.092.01-.14-.036,0-.041.04-.064.058-.006-.053-.015-.125-.026-.178-.03-.145-.19-.26-.1-.433.075.015.122-.1.064-.217-.041-.086-.135-.062-.2-.1a.457.457,0,0,0-.016-.231c-.025-.074-.1-.115-.126-.187-.167,0-.3-.125-.469-.13a.064.064,0,0,0,.008-.03.289.289,0,0,1-.156-.006c-.087-.027-.158-.086-.242-.118-.077.077-.077.077-.085.221-.1.085-.1.085-.111.082-.073.322-.083.363-.192.43-.035-.121-.043-.156-.071-.287a.6.6,0,0,1-.014.156.882.882,0,0,1-.026-.44c-.029-.033-.03-.044-.035-.153-.094.035-.176-.056-.271-.027h0c-.054.113-.085.172-.15.192-.016.046.018.1-.024.142a.4.4,0,0,0-.035-.121c-.043.035-.045.037-.072.044a.2.2,0,0,0,.155.15c.094.034.108.076.144.187.076-.049.167-.069.239-.126a.075.075,0,0,0-.015.024.123.123,0,0,1,.017.041l-.013,0c-.035.051-.035.051-.095.042-.041.038-.037.095-.063.14-.032-.04-.091-.008-.121.046.011.015.011.015.011.045.053-.037.072.059.118.073,0,.027.015.048.017.074h-.007l0,0h0l0,0h-.006l0,0c.015.118.015.118.03.142.014,0,.022-.017.033-.023a.49.49,0,0,1,.048.031l.01-.01c-.009-.012-.025-.018-.034-.031.018-.07.027-.143.051-.213.009.066.073.091.1.141l0-.028a.052.052,0,0,1,.022.014l.014,0,.006-.017c.12.156.392.052.472.277.039.111.038.23.08.34-.021.025-.021.025-.031.031a1.126,1.126,0,0,0,.026.148c-.085-.036-.17.21-.178.383a.362.362,0,0,1,.16-.087c.014-.049.014-.049.152-.148.088.367.314.2.316.2.061-.052.186-.185.038-.319.057.016.067-.051.1-.069,0-.068.039-.127.038-.2.022.027.049,0,.074,0,.007-.013,0-.029.008-.043.161.037.161.037.207.283.06.315.246.234.316.2,0,.043,0,.046.017.064a.077.077,0,0,0,.065-.094.054.054,0,0,1-.023-.022c.043-.025.046-.027.052-.054" transform="translate(-6.864 -2.043)"/><path class="cls-1" d="M167.751,22.941c0-.016,0-.038,0-.054-.025.006-.026,0-.043,0l-.01.021c-.023.087-.023.087-.056.1a.258.258,0,0,1-.137.2c-.12.06-.253.022-.376.055-.009,0-.009,0-.009-.006V23.2c-.035.039-.082,0-.121.018a.233.233,0,0,1-.047.181h-.013a.209.209,0,0,0-.019-.04l-.013,0a.54.54,0,0,0-.04.122.694.694,0,0,0-.04.119c0,.032.036.053.022.088l-.012,0-.021-.017a.094.094,0,0,0-.006.029c.07.049.02.126.044.186-.173.192-.047.466-.183.667.038.076,0,.162.028.239.031-.018.06-.039.091-.058.024.091.024.091-.018.648,0,0,0,0,.067.029a.217.217,0,0,1,.13-.083,5.176,5.176,0,0,0-.024-.787c.143-.159.143-.159.145-.08a.425.425,0,0,1-.04.216.433.433,0,0,0,.136.142.427.427,0,0,0-.021.205c.061.018.068.02.111,0-.023-.105,0-.114.141-.174v-.116c-.069.013-.067-.073-.111-.1.024-.039,0-.093.042-.127-.008-.023-.008-.023-.2-.372.034.013.071,0,.108-.052.078-.1.113-.219.186-.319.017.017.022.043.047.052.021-.114.037-.2-.072-.136-.032.021-.031.03-.03.05l.011.007c-.094-.011-.133.159-.229.093a1.1,1.1,0,0,0-.082.19c-.022.009-.047,0-.068.015a.639.639,0,0,1-.025-.105c-.193-.069-.061-.422-.046-.436a1.2,1.2,0,0,1,.349-.082,1.013,1.013,0,0,0,.37-.118,2.491,2.491,0,0,0,.093-.359" transform="translate(-6.864 -2.043)"/><path class="cls-1" d="M164.087,25.347c.006-.032.017-.074.025-.106a.2.2,0,0,1-.1-.162,1.742,1.742,0,0,0-.177,0,.129.129,0,0,0,.011-.086c-.04,0-.042,0-.083-.049.024-.079-.021-.152-.021-.229-.149.022-.177.013-.236-.071a.493.493,0,0,0,.052-.092.229.229,0,0,1-.037,0,.187.187,0,0,0,.006-.079c.185-.088-.02-.193-.022-.194-.042-.014-.049.039-.075.057-.132-.1-.215-.266-.387-.321-.063-.137-.089-.193-.164-.149,0,.017,0,.034,0,.051l-.01.012c-.053-.027-.079-.056-.129-.177-.016,0-.03.013-.046.017a.738.738,0,0,0-.094-.139c-.1-.106-.253-.143-.36-.243-.048-.045-.046-.162-.1-.194s-.058-.033-.655-.1l.047.161c.17.268.506.394.615.715a.584.584,0,0,1,.286.17c-.022.145.083.262.091.4a.9.9,0,0,1,.235.213c.13.191.161.425.275.623a1.785,1.785,0,0,0,.215.229c.041.048.075.129.118.175.134.146.3.26.423.415,0-.033,0-.033-.025-.1l.011-.026c.086.057.086.057.123.058,0-.067.007-.08.027-.1.037.071.055.092.094.113.046-.26.015-.525.063-.785" transform="translate(-6.864 -2.043)"/><path class="cls-1" d="M166.575,22.159a.435.435,0,0,0,0-.063c-.089.022-.168-.123-.254-.037.024-.04.022-.046-.006-.092-.024.01-.032.037-.053.051a1.8,1.8,0,0,0-.075-.236l-.021.029-.019-.006a.383.383,0,0,0-.022-.056l-.027-.01c-.011.037-.016.076-.029.113h-.018a.115.115,0,0,0-.013-.11l-.009,0h0a2.754,2.754,0,0,1-.125.5.061.061,0,0,0-.029-.019c-.035.092-.035.092-.035.1l.04.026c0,.044,0,.044-.087.12,0-.021,0-.042,0-.063-.073.059-.085.181-.2.2a.691.691,0,0,1-.473.661,1.819,1.819,0,0,1-.024.406l-.008-.017c-.031-.008-.066,0-.093-.023l.008-.023c-.142.042-.172.051-.185-.058-.1.035-.235.411-.021.835l-.019,0a.155.155,0,0,0,0,.069l.015.009a.288.288,0,0,1,.052-.017l.01.016c-.037.016-.037.016-.033.115.042-.02.057-.069.1-.089a.261.261,0,0,1,0,.234c.033.028.033.028.074.33.026-.008.037-.036.06-.049.095.051.109.059.256-.071a1.683,1.683,0,0,1,0,.213c.057-.014.086-.122.154-.077a.21.21,0,0,0,.1-.149c.021.051.04.065.1.043a.241.241,0,0,1,0,.07l.016.007c.163-.068.188-.078.177.171.092-.083.182-.168.273-.252,0,.127,0,.127,0,.132s.156-.038.032-.273l.019-.006a.41.41,0,0,0-.02-.059l.015.008c.028-.033.046-.054.022-.141a.11.11,0,0,1,.034-.01c.019-.094.019-.094.013-.112a.108.108,0,0,0-.036,0c.012-.1.012-.1,0-.112l-.018,0h0l-.018,0c.1-.11.133-.263.259-.351a.669.669,0,0,1,.053-.548c.056.033.182.023.169-.1a.579.579,0,0,1-.237-.219.374.374,0,0,0,.039-.111.333.333,0,0,1-.111-.2c-.037.01-.044,0-.062-.034.011-.019.015-.04.027-.058.008.041.008.041.022.056l.016-.01c0-.036,0-.036-.065-.073l.008-.017c.039-.01.039-.01.059-.027-.02-.095-.02-.095.014-.16l-.013-.018a.313.313,0,0,1-.043,0l-.008-.028c.047.033.047.033.184-.05a.086.086,0,0,0-.025-.06l0-.034c-.047.021-.062.011-.083-.03.041-.074.159-.057.181-.154" transform="translate(-6.864 -2.043)"/><path class="cls-1" d="M158.134,23.03a.713.713,0,0,0-.145-.419c-.011,0-.011,0-.039.013l-.007,0c-.057-.15-.19-.368-.319-.351a.116.116,0,0,0-.06.031c.144.018.029.365,0,.434,0,.009-.011.019-.01.028l.11.468a.466.466,0,0,0,.095.176.338.338,0,0,0,.37-.377" transform="translate(-6.864 -2.043)"/><path class="cls-1" d="M167.736,21.155a1.528,1.528,0,0,0-.085-.343c-.01-.025-.044.009-.055-.015.029-.053.031-.058.028-.095l-.008-.009a.121.121,0,0,1-.04-.094c-.075-.012-.1-.092-.17-.115l.006.038c.017.066.052.126.064.194-.056,0-.062,0-.065.072-.019-.035-.03-.045-.055-.034-.007.051.031.1.007.151-.019,0-.033-.021-.054-.017-.02.045,0,.094-.016.139a.069.069,0,0,0-.036.024c-.019-.083-.019-.083-.1-.15-.033.025-.021.1-.076.092a.28.28,0,0,0,.006.061c0,.026.006.036-.011.057s-.041.014-.055.025a.137.137,0,0,0-.044.075c-.013.1,0,.191-.007.287.02,0,.035.032.059.016.017-.247.017-.247.063-.289v.013l0,.012,0,.012v.012l0,.013,0,.012v.012l0,.012c.047,0,.024-.065.056-.084,0,.023,0,.032.005.041s.041.011.058.023c-.023-.043-.023-.043-.007-.133.041.014.166.058.125.157a.313.313,0,0,0,.067.278c.047.05.133.116.18-.011,0,.1,0,.124.049.136a.315.315,0,0,0-.027-.312c-.019-.02-.045-.048-.007-.133h.009c.009.012.011.028.022.039.01-.044-.05-.082-.012-.129.055.087.065.194.123.281a2.656,2.656,0,0,0-.007-.32" transform="translate(-6.864 -2.043)"/><path class="cls-1" d="M167,19.708a.387.387,0,0,0-.03-.1.075.075,0,0,1-.009.015c-.015,0-.027-.012-.042-.012a.037.037,0,0,0-.008.026c0-.037,0-.037-.087-.154.012-.02.019-.024.063-.036-.023-.069-.1-.044-.141-.076-.011.038.021.062.03.093l0,0-.006,0h0l0,0h-.006l0,0,0,0h-.006c-.022-.189-.147-.139-.171-.109s.037.072,0,.109c-.148-.078-.153-.252-.245-.368.016-.1.017-.124-.02-.146a.154.154,0,0,1,.048-.108.058.058,0,0,1,0,.018.4.4,0,0,0-.012-.274c-.045-.149-.139-.275-.2-.419a.1.1,0,0,1,0,.065c-.078.01-.145-.059-.225-.033a.115.115,0,0,0-.044.028c.04.247.141.477.186.723-.051,0-.068-.054-.108-.071a3.04,3.04,0,0,0,.187.453c.015,0,.015,0,.024-.035.048.109.048.109.094.1.01-.043-.028-.071-.033-.109.073.013.081.015.095.075-.029.02-.022.063-.053.081.037.113.037.113.061.135a.053.053,0,0,1,.012-.054c.011.036.055.046.063.083.011,0,.011,0,.073-.038-.027-.15.106-.051.107-.05.051.038.087.09.135.131,0-.08-.066-.136-.087-.21.042.039.1.06.135.1a.323.323,0,0,1,.067.125c.088-.035.113.071.174.1a.344.344,0,0,0,0-.075" transform="translate(-6.864 -2.043)"/><path class="cls-1" d="M130.854,14.707a1.136,1.136,0,0,0,.044-.271c0,.031,0,.036,0,.039s.01-.011.024-.053c-.007,0-.028,0-.008-.054a.586.586,0,0,0,.022-.248l0,.01c-.01.017-.011.017-.017.019-.021-.045.015-.088,0-.132h0a.108.108,0,0,0-.03.085.4.4,0,0,1-.045.149l0,0c-.019.059-.031.119-.049.178-.019,0-.019,0-.007-.165a.577.577,0,0,0-.06.211.038.038,0,0,1,.013-.018c.014.005.037.107-.038.3a.69.69,0,0,0,.082-.165.07.07,0,0,0,0,.02c.008-.006.012-.016.021-.02l0,.007,0,.008,0,.007,0,.007,0,.008,0,.007,0,.007,0,.008c.007.008.008.009.024,0s.02-.009.026.023c.008.049-.025.091-.022.139a.918.918,0,0,1,.05-.1" transform="translate(-6.864 -2.043)"/><path class="cls-1" d="M164,18.37a.089.089,0,0,0-.111-.107c-.04.012-.074.036-.115.046a.105.105,0,0,1-.066,0,.068.068,0,0,1-.021.043c-.016.013-.038.014-.055.024a.146.146,0,0,1,0,.069.469.469,0,0,1-.052.086.1.1,0,0,0-.013.055.365.365,0,0,0,.025.053.815.815,0,0,1,.054.146.678.678,0,0,0,.243.049c-.01-.047,0-.073.053-.061.061-.128.016-.271.054-.4" transform="translate(-6.864 -2.043)"/><path class="cls-1" d="M131.184,12.992l-.006.026v-.005l0-.021" transform="translate(-6.864 -2.043)"/><path class="cls-1" d="M130.934,13.884a1.1,1.1,0,0,0,.056-.251.415.415,0,0,0,.036-.076l.152-.539-.007.025c-.022.068-.047.135-.07.2a4.4,4.4,0,0,0,.176-.576.742.742,0,0,0,.012-.087.81.81,0,0,0-.1.191l.007-.013a.262.262,0,0,1-.019.046c.02-.031.035-.064.056-.094.008.023-.025.1-.025.1a.137.137,0,0,1,.005-.028c-.024.059-.036.1-.042.116s-.086.315-.086.315l-.115.378c-.019.052-.053.1-.075.149.032.05-.043.123.024.161a.083.083,0,0,0,.017-.015" transform="translate(-6.864 -2.043)"/><path class="cls-1" d="M165.414,16.526a1.1,1.1,0,0,0-.048-.143.119.119,0,0,0-.083.009c-.186.129.022.84.262.894a5.065,5.065,0,0,0-.131-.76" transform="translate(-6.864 -2.043)"/><path class="cls-1" d="M131.833,11.489l.015-.026h0l-.014.025" transform="translate(-6.864 -2.043)"/><path class="cls-1" d="M130.514,14.632l.01-.033-.013.041v0l0-.006" transform="translate(-6.864 -2.043)"/><path class="cls-1" d="M132.635,10.368l.019-.021a1.647,1.647,0,0,1,.289-.961l-.629,1.05h0l-.008.015-.006.01h0c-.043.076-.084.154-.126.232.017-.029.033-.058.049-.087-.029.054-.057.108-.086.161a1.444,1.444,0,0,0,.1-.177l-.007.014.018-.032v0h0v.012l0-.009,0-.008,0-.008,0-.009,0-.008,0-.008.005-.009,0-.008c.015-.036.06-.112.06-.112a.712.712,0,0,0-.044.093.2.2,0,0,0,.028-.03c-.066.117-.1.249-.175.363l.013-.013c0,.046-.008.093-.308.637l.01-.014c-.045.094-.1.183-.141.28l.018-.033c-.2.431-.2.431-.218.479l.016-.044c-.023.041-.027.09-.05.13.272-.476.491-.981.776-1.45a3.585,3.585,0,0,1,.376-.443" transform="translate(-6.864 -2.043)"/><path class="cls-1" d="M132.107,25.141q-.036-.64-.034-1.3v-.07a7.088,7.088,0,0,0-.893-1.39.331.331,0,0,0-.077.058.152.152,0,0,0-.006-.092.993.993,0,0,0-.03.131c-.042-.159.078-.336-.053-.485l-.009.052c-.014-.1-.068-.183-.074-.282-.061-.049-.073-.129-.116-.19l-.057.01a.559.559,0,0,0-.048.192c-.044.022-.044.022-.085.138,0-.036.009-.085.015-.121a.29.29,0,0,1-.088-.048l.058.02c.252-.172.113-.353-.033-.545-.026.045-.029.1-.07.139a.535.535,0,0,1,.081-.326.218.218,0,0,1-.057.148l.008.049.034-.045.039.034a.144.144,0,0,0,.032-.088l-.047-.006a1.805,1.805,0,0,0,.047-.6l-.012.056c-.035-.257.048-.512,0-.769l-.007.048a2.288,2.288,0,0,0-.188-.807l-.036.037a4.358,4.358,0,0,1-.067-1.293h0l-.014.051c0-.105.016-.563.016-.565l.052-.007a.23.23,0,0,0-.084-.131V17.2l-.052.014c-.065-.09.021-.216-.069-.3.011-.141.075-.585.076-.587a.227.227,0,0,0-.04.161.243.243,0,0,0-.083.091,3.67,3.67,0,0,0,.123-.46c-.036.054-.059.116-.093.171l-.009-.049c-.01.033-.023.076-.032.109,0-.027.01-.065.014-.093-.072.178-.187.68-.188.685.031-.174.108-.581.109-.585-.023.086-.046.2-.064.29h0l.01-.049a26.222,26.222,0,0,0-.459,4.423l.068,1.774c.068.847.783,1.705,2.215,2.518.05.029.1.057.152.085.118-.211.118-.211.124-.255" transform="translate(-6.864 -2.043)"/><path class="cls-1" d="M164.811,15.312c-.027-.08-.094-.14-.1-.227a1.482,1.482,0,0,1-.181-.068l-.035.045-.056,0c.038-.158.051-.174.094-.224-.184-.165-.283-.213-.408-.2l.05-.035c.067.013.131.032.2.041-.057-.06-.057-.06-.5-.46a39.864,39.864,0,0,1-4.326.807c-1.866.25-3.809.407-5.761.475.061.884.115,1.785.162,2.7.12.175.12.175.61.433a.327.327,0,0,1,.106-.068l.027.061a.263.263,0,0,1-.253.1c0,.265.478.59.681.395a.406.406,0,0,0,.1-.2l-.046-.041c.01-.034.025-.08.038-.114.251.249.14.586.217.878l.65,1.5c.265.541.325,1.182.792,1.626.229.218.323-.351.6-.3a.665.665,0,0,1-.116-.041.9.9,0,0,1,.083-.264.847.847,0,0,1,.113-.008c-.1-1.646-.1-1.646-.022-1.689l.035.045c.059-.061.06-.062.089-.187.03,0,.287.012.194-.213l.888-1.2a.272.272,0,0,1-.054-.2c.059-.054.133-.088.2-.138.064.058.065.059.246.032l.012-.056.058.032a.3.3,0,0,1,.1-.055l.027-.058.04.042a.24.24,0,0,0,.06-.1l.047.035c.042-.059.067-.095-.039-.235l-.053.019-.008-.067a.317.317,0,0,1,.115.084l.031-.047c.335.169.309.66.7.779l.04-.042a.427.427,0,0,1,.152.138l-.056.02a1.277,1.277,0,0,1,.414.984c.015-.031.034-.074.046-.106a.289.289,0,0,1,.015.113.29.29,0,0,1,.108.034l.053-.032.051.033c.055-.185.284-.294.23-.527a4.265,4.265,0,0,1,.7,1.442.19.19,0,0,1,.041.116l.057,0a7.24,7.24,0,0,0,.058,1.2,1.276,1.276,0,0,0,.055-.192c.036.062.1.107.118.18l.07.024c.093.217.375.35.29.647l.051-.022c.07.428.094.573.821,1.1l.024-.052a.258.258,0,0,1,.114-.01s-.233-.888-.277-.975a1.653,1.653,0,0,0-.5-.577c-.06.031-.06.031-.245-.041a2.254,2.254,0,0,0-.232-.608c-.031.014-.072.036-.1.053-.168-.413.034-.849-.074-1.266a.3.3,0,0,1,.171-.035c.026.028.027.037.029.047l0,.028,0,.028,0,.029,0,.028,0,.028,0,.028,0,.028a1.073,1.073,0,0,1,.24-.033c.026.029.026.029.122.144a.246.246,0,0,1,0-.041h0c.085.029.131.045.237.356l.055-.014.015-.061.049.037a.319.319,0,0,0,0,.111.326.326,0,0,1,.356.12c-.024.045-.024.045-.006.418.139-.05.137-.235.272-.288l-.01-.064.057,0a1.057,1.057,0,0,1,.052-.194l-.054-.027a.274.274,0,0,0,.048-.1l.037.051c.446-.271.387-.489.306-.79l.045.042a1.859,1.859,0,0,0-.548-1.013c-.012,0-1.064-.568-.657-1.082-.05-.193.118-.477.487-.464.079.1.088.234.187.319l.058-.007.029-.054a.945.945,0,0,0-.093-.1,1.064,1.064,0,0,1,.49-.52c-.018-.067-.018-.067-.09-.161l.05-.029c.117.128.117.128.167.129a.18.18,0,0,1,.005-.11l.056.012.024-.053a.173.173,0,0,0,.088-.065l.053.029a.319.319,0,0,1,.093-.09c-.007-.06.012-.119,0-.179a.428.428,0,0,0,.129-.268l-.053-.023a.183.183,0,0,1,.078-.073,1.567,1.567,0,0,0,.04-.434l-.058.01c-.007-.126-.019-.661-.019-.662l.055.01.032-.047a.478.478,0,0,0-.092-.088c-.029-.023-.027-.024-.025-.024l.007,0,.006,0,.007,0h.006l.007,0,.006,0h.006a.2.2,0,0,0-.071-.1.166.166,0,0,1,.062-.011" transform="translate(-6.864 -2.043)"/><path class="cls-1" d="M165.7,13.9l0-.024c-.064-.035-.07-.053-.072-.077l-.008,0-.008,0-.008,0-.008,0-.008,0-.008,0-.007,0-.008,0c0-.062,0-.062-.019-.093-.009,0-.01,0-.023-.014l-.027.009c0,.017-.014.037-.054.017l-.105.033.01.018c-.031-.012-.032,0-.028.019s0,.031-.031.016c.016.024.021.034.007.045s-.019.014,0,.036a1.279,1.279,0,0,0,.162.167c0-.069,0-.069.01-.071.033.05.01.131.087.157,0-.061-.048-.108-.048-.169-.017-.015-.04,0-.058-.015l.006-.01c-.006-.023-.036-.029-.042-.053l.006-.01c.06.034.094.1.149.136a.314.314,0,0,0,.073.2.249.249,0,0,1,.058.126.4.4,0,0,0,.115.031c-.018-.043-.066-.064-.083-.107.038.011.038.011.119.145.018-.084.019-.093-.026-.143.016,0,.034.031.047.012s.006-.008-.018-.053a1.325,1.325,0,0,1-.145-.348" transform="translate(-6.864 -2.043)"/><path class="cls-1" d="M166.1,13.528l0-.008-.088.031a.174.174,0,0,0,.108.033l-.018-.056" transform="translate(-6.864 -2.043)"/><path class="cls-1" d="M141.963,14.792l.091.015a.1.1,0,0,0-.028-.08h0c-.013,0-.02.012-.032.032s-.016.027-.028.032" transform="translate(-6.864 -2.043)"/><path class="cls-1" d="M142.29,13.953l.021-.012c0-.023,0-.045,0-.068l-.013-.011c-.1.066-.1.066-.146.069.032-.033,0-.085.036-.119a.135.135,0,0,0-.1-.05c-.107,0-.2.082-.307.077a.129.129,0,0,1-.043-.007c-.028-.011-.013-.051-.041-.063-.054-.024-.122.023-.17-.031l-.247.074a.9.9,0,0,0-.965.046c-.068-.035-.131-.007-.27.07s-.221.09-.249-.071c-.112.056-.384.073-.338-.222a.064.064,0,0,1-.074.015,1.34,1.34,0,0,1-.524.513c.953.239,2,.5,3.092.682a.294.294,0,0,1-.051-.216c.2-.126.256-.164.3-.36a.171.171,0,0,1-.048-.212c.065-.009.089-.071.134-.1" transform="translate(-6.864 -2.043)"/><path class="cls-1" d="M142.35,13.006a.721.721,0,0,0,.055-.272c-.026,0-.03-.034-.053-.04h0c-.024.025-.144.149-.183.061a.427.427,0,0,0-.046.1.092.092,0,0,1,.024.081c0,.037-.042.059-.048.1,0,.01,0,.01.024.011a.01.01,0,0,1,0,.011c-.014.031-.042.052-.056.083-.023.047-.033.1-.054.146.026-.016.028-.015.034-.013s0,.036.013.052c.013-.024.029,0,.032,0s.016-.009.063-.081c.024,0,.024,0,.069.044.115-.252.115-.252.127-.284" transform="translate(-6.864 -2.043)"/><path class="cls-1" d="M141.854,9.086c.024-.019.024-.019.022-.074A.231.231,0,0,1,141.9,8.9a.083.083,0,0,0-.064-.017c-.045,0-.056-.007-.047-.054l-.039,0a.474.474,0,0,0-.252.117c.01.018.041.013.043.04-.049.025-.105.028-.154.051.021-.04.021-.04-.084-.052-.024.024-.038.058-.072.072.012.026.044.024.06.044-.036.006-.038.007-.121.06l0,0c0,.008,0,.009-.019.021.039.016.058.062.1.071-.078.028-.132.093-.207.127l0,0c.012,0,.021-.01.033-.011v.012c-.035.008-.051.042-.081.058.023-.033-.024-.023-.025-.023-.02,0-.053.017-.049.05a.033.033,0,0,1,.053.006l0,.007c-.019-.007-.019-.007-.089.037.017,0,.018.035.04.027-.009.015-.025.022-.036.035s0,0,.05,0l0,.011a.346.346,0,0,0-.049.036c.192.019.364-.088.552-.09a.808.808,0,0,0,.236-.389c.042.027.13-.041.166-.071" transform="translate(-6.864 -2.043)"/><path class="cls-1" d="M142.457,9.741c.131-.193-.08-.162-.082-.162a.127.127,0,0,0-.048.025.025.025,0,0,1-.006-.02c.013-.034.06-.032.071-.068a1.376,1.376,0,0,1,.061-.235c-.1-.148.112-.515-.124-.489a1.256,1.256,0,0,0,.121-.046l-.009,0a.039.039,0,0,1,0-.021A1.237,1.237,0,0,0,142.7,8.5c-.023-.073-.1-.07-.236-.065a.341.341,0,0,0,.045-.04.075.075,0,0,0-.008-.024c.16-.07.169-.075.221-.136l-.022,0c-.177-.015-.177-.015-.192-.044-.036.022-.047.076-.1.079-.011.022-.05.027-.041.061-.024.008-.051-.006-.073.013-.039.034-.052.085-.084.124-.024-.04.03-.073.012-.113-.027.03-.071.034-.1.065.035.021.01.093.062.091-.035.052-.1.063-.142.106a.069.069,0,0,1,.019.01c-.01.018-.01.018-.026.022h-.007a.028.028,0,0,0-.02.012v.01c.026.008.026.008.14-.043a.868.868,0,0,0-.085.1c-.046-.007-.082,0-.162.065l.022,0,0,.01-.022.023c.057,0,.083-.054.128-.073a.679.679,0,0,1-.106.15c.074-.016.089-.11.166-.122.026.04-.008.076-.008.115-.055.013-.081.071-.135.086-.02.057-.011.072-.006.08l.01,0a.122.122,0,0,1,.01-.024c.012,0,.025,0,.036.041.055-.024.118-.017.173-.044-.139.145-.139.145-.106.211.02-.022.025-.021.038-.016l0,.01c-.144.2-.248.176-.31.121-.017.025-.007.059-.026.083s-.053.021-.073.042c.023.008.023.008.085-.01-.048.142-.1.153-.271.191-.024.065-.024.065-.027.068.03.046.077,0,.115.01-.007.027-.007.027-.021.041.017.007.017.007.062,0,.005.02-.012.05.015.058.044.014.083-.025.127-.015a.571.571,0,0,0-.1.067c-.022-.016-.074-.053-.2,0-.028.012-.043.059-.068.077-.069.049-.154.071-.219.126a.084.084,0,0,1,.021-.011l.011,0c.025,0,.018.037.043.034.05-.007.081-.059.135-.056a.074.074,0,0,1,.075.054c.077-.1.189-.138.205-.043a.147.147,0,0,1,.172.022.6.6,0,0,0,.039-.049.471.471,0,0,0,.356,0,.547.547,0,0,1,.048-.08c-.077.019-.077-.016-.078-.03a.159.159,0,0,0,.022-.013l.2-.168" transform="translate(-6.864 -2.043)"/><path class="cls-1" d="M142.607,6.776l.083-.046c0-.006,0-.006.055-.083-.022-.021-.024-.024-.047-.026a.155.155,0,0,0,.022-.026l0,0a.115.115,0,0,1-.026,0l0,0,0-.008c.048-.025.048-.025.051-.039s-.022-.009-.028-.02l0-.008c.028-.009.055-.023.083-.033-.035,0-.069.024-.1,0,0-.014,0-.017.02-.05l-.007,0-.008,0-.008,0-.007,0-.008,0-.007,0-.008,0-.007,0c-.015.018-.022.041-.038.059-.084-.011-.084-.011-.137.018.026-.066-.016-.061-.017-.061-.025,0-.019.046-.049.043,0-.019.033-.044.009-.056a.39.39,0,0,0-.085.02c-.043.043-.043.043-.045.043-.022-.031.018-.051.015-.079-.059-.044-.071.13-.131.086a.169.169,0,0,0,.008-.024l0,0a.5.5,0,0,0-.107.069c.044-.06.044-.06.053-.084.017,0,.027-.005.067-.05-.013-.034.008-.074-.02-.1s-.049,0-.067.007c0,.019-.012.034-.012.053l-.014,0c-.012-.013,0-.048-.021-.044a.279.279,0,0,0-.11.067l0-.013,0,0-.007.006,0,.006,0,0,0,.006,0,.006,0,0,0,.006,0,.005V6.4c-.008,0-.022-.009-.057.023.057.04.169-.021.189.073-.024-.006-.047.008-.07.007s-.01.011-.016.037a1.65,1.65,0,0,0-.171-.009c-.023.054.076.034.108.06-.041.045-.048.052-.022.065-.018.012-.018.012-.037.063-.03,0-.09.034-.089-.008-.011,0-.022.009-.053.051.085-.017.12.012.167.084.032.049.059.092.129.086l.018,0c.031-.008.056-.027.087-.035a.355.355,0,0,1,.073,0,1.083,1.083,0,0,0,.451-.112" transform="translate(-6.864 -2.043)"/><path class="cls-1" d="M136.4,5.354l.305-.3c.036-.031.076-.058.112-.088a1.037,1.037,0,0,1,.106-.083l0,0a.7.7,0,0,1-.112.117V5c-.015,0-.02.02-.033.027v0c-.033.033-.069.063-.1.094l0,0c-.022.048-.081.056-.107.1h0a.7.7,0,0,1-.079.065l.009,0a1.428,1.428,0,0,1-.18.154c.024-.027.024-.027.071-.074" transform="translate(-6.864 -2.043)"/><polyline class="cls-1" points="133.812 0.174 133.815 0.171 133.812 0.174"/><polyline class="cls-1" points="133.709 0.178 133.7 0.182 133.709 0.178"/><path class="cls-1" d="M134.374,8.179a4.274,4.274,0,0,0-1.421,1.258c.362-.524.84-1.228,1.227-1.734a21.847,21.847,0,0,1,2.44-2.634,22.718,22.718,0,0,1,2.926-2.258c.38-.229.882-.541,1.269-.757h0l.05-.012c-.134.071-.264.148-.4.222l.039-.02.028-.016h0a.621.621,0,0,1-.115.07.487.487,0,0,0,.157-.081,1.732,1.732,0,0,1,.189-.058,1.019,1.019,0,0,1-.135.074.2.2,0,0,0,.043-.017h0l0,0c-.135.1-.305.135-.439.238a.177.177,0,0,0,.144-.031.137.137,0,0,1,.058.061c-.033.04-.1.051-.1.115-.129.088-.129.088-.167.1l-.035-.032c-.088.128-.238.176-.348.276l-.038-.013a.228.228,0,0,1-.076.046l-.026-.007h0a.148.148,0,0,1-.006.086l.029.033a.447.447,0,0,1,.121.016l-.006.051c.113-.058.155-.079.4-.038l-.018.037a.471.471,0,0,0-.141.023V3.136a.775.775,0,0,1-.114.037l-.023-.032c-.127.047-.127.047-.492-.02l-.013-.038.042-.022.009-.044L139.4,3c-.053.044-.108.086-.157.134-.056-.008-.17-.024-.964.58a.82.82,0,0,1,.128-.1c-.088.063-.1.076-.151.114.023-.021.055-.049.08-.068-.107.082-.214.164-.32.247l.034-.023c-.065.05-.065.05-.746.631l.027-.031a4.646,4.646,0,0,1-.5.464l-.013.012h0a5.456,5.456,0,0,0-.644.632,1.033,1.033,0,0,1,.228-.207c-.077.1-.161.186-.24.28l.015-.016c-.395.5-.716,1.055-1.088,1.573a7.378,7.378,0,0,1-.715.963" transform="translate(-6.864 -2.043)"/><path class="cls-1" d="M129.847,24.661c0,.034.013.081.019.116-.075-.58-.191-1.351-.24-1.933a1.67,1.67,0,0,1,0-.3c.064,1.055.164,1.779.218,2.117" transform="translate(-6.864 -2.043)"/><path class="cls-1" d="M134.86,35.337l-.532-.638,0,0c-.035-.043-.069-.087-.1-.13l.032.041-.026-.033-.029-.036c-.489-.625-1.275-1.8-1.412-2.021a20.763,20.763,0,0,1-1.61-3.161c-.243-.664-.568-1.549-.774-2.225l.036.125a21.143,21.143,0,0,0,1.2,3.117l-.018-.041c.107.221.107.221.719,1.389l-.018-.041c.08.139.167.274.239.418-.027-.038-.027-.038-.253-.424,0,.007.512.893.609,1.01l.019.032h0a1.241,1.241,0,0,0,.1.158c-.061-.1-.126-.2-.188-.309.087.132.183.258.264.394l-.051-.076c.022.04.044.08.067.119l-.023-.034c.113.19.329.493.331.495-.052-.078-.1-.158-.156-.236.07.083.122.178.184.266l-.022-.035c.078.1.142.207.213.311l-.013-.028h0c.038.054.076.107.115.16-.044-.052-.085-.107-.128-.161.256.359.256.359.424.585-.059-.084-.059-.084-.091-.125.043.053.043.053.189.247l-.028-.031c.049.062.1.125.145.188-.046-.063-.091-.127-.137-.191.094.125.185.253.283.374l.021.026,0,0h0v.006h0v0l-.028-.034c.031.038.06.078.091.116l-.029-.033.208.258-.029-.036.075.09-.027-.032c.045.056.092.11.139.165l-.035-.04.052.06" transform="translate(-6.864 -2.043)"/><path class="cls-1" d="M132.218,10.8l-.008.017v0h0v0h0v0h0v0h0v0h0v0h0v0h0v0h0l-.012.023" transform="translate(-6.864 -2.043)"/><path class="cls-1" d="M129.952,16.972c.031-.161.031-.161.1-.5l0,.009c.4-1.55.4-1.55.483-1.834l0-.009c.122-.392.276-.773.41-1.16h0l.018-.051c-.013.032-.029.076-.041.108a9.529,9.529,0,0,1,.358-.907c-.029.121-.19.565-.191.568.033-.071.034-.071.1-.086.184-.361.32-.745.5-1.107l-.044.1c.2-.4.308-.845.535-1.236l.021-.044-.045.088-.024.048c.043-.091.189-.391.19-.392l.012-.021,0,0,0,0v0h0v0l0,0v0l-.021.044a.669.669,0,0,1,.064-.138l-.029.044a.863.863,0,0,1,.039-.1l-.024.045c.015-.029.036-.067.052-.095-.028.045-.059.087-.086.133l.629-1.051a4.274,4.274,0,0,1,1.421-1.258c-.032.036-.032.036-.9,1.449.022-.018.051-.041.074-.057-.232.506-.634.908-.871,1.411-.016-.21.178-.323.23-.5l0-.014h0c.008-.014.942-1.607.978-1.7-.142.164-.595.883-1.346,2.139A17.545,17.545,0,0,1,131.1,13.61l-.044-.006.015-.047c-.186.344-.3.717-.456,1.075h0a4.257,4.257,0,0,0-.315.941l0,.014h0c-.036.133-.064.268-.1.4.006-.032.015-.074.024-.105-.06.186-.095.379-.142.568l.008-.047c-.014.058-.026.116-.039.174l.008-.044a2.86,2.86,0,0,1-.1.438" transform="translate(-6.864 -2.043)"/><path class="cls-1" d="M129.629,22.544a1.67,1.67,0,0,0,0,.3l-.068-1.774c.033-.771.078-1.8.155-2.569h0c0,.061-.013.122-.019.183l0-.021c-.074,1.1-.074,1.1-.084,1.341,0-.043,0-.086,0-.129,0,.1-.008.186,0,.915,0,0,0,0,0,0v.073c-.038.559.028,1.118.015,1.678" transform="translate(-6.864 -2.043)"/><path class="cls-1" d="M182.24,33.649V19.141h-8V15.188H194.7v3.953h-8.01V33.649Z" transform="translate(-6.864 -2.043)"/><path class="cls-1" d="M209.309,33.649l-3.579-6h-5.464v6h-4.454V15.188h11.2a7.006,7.006,0,0,1,3.442.806,5.661,5.661,0,0,1,2.261,2.216,6.477,6.477,0,0,1,.8,3.215,6.121,6.121,0,0,1-.932,3.374,5.423,5.423,0,0,1-2.317,2.113l4.146,6.737Zm-.829-10.543a2.308,2.308,0,0,0,.579-1.681,2.247,2.247,0,0,0-.625-1.693,2.025,2.025,0,0,0-1.42-.591h-6.748V23.7h6.748A2,2,0,0,0,208.48,23.106Z" transform="translate(-6.864 -2.043)"/><path class="cls-1" d="M233.276,33.649l-1.954-4H222l-1.943,4h-4.76l9.225-18.461H228.8l9.236,18.461Zm-6.612-13.6L223.915,25.7H229.4Z" transform="translate(-6.864 -2.043)"/><path class="cls-1" d="M239.134,33.649V15.188h10.225a11.522,11.522,0,0,1,5.146,1.147,9.176,9.176,0,0,1,3.7,3.215,8.612,8.612,0,0,1,1.386,4.874,8.612,8.612,0,0,1-1.386,4.874,9.352,9.352,0,0,1-3.7,3.215,11.516,11.516,0,0,1-5.146,1.136Zm13.156-4.613a5.157,5.157,0,0,0,2.079-1.829,5.4,5.4,0,0,0,0-5.566A5.105,5.105,0,0,0,252.29,19.8a6.536,6.536,0,0,0-2.931-.659h-5.772V29.7h5.772A6.38,6.38,0,0,0,252.29,29.036Z" transform="translate(-6.864 -2.043)"/><path class="cls-1" d="M260.7,33.649V15.188h16.463v3.953H265.157v3.306h10.009V26.4H265.157V29.7h12.009v3.954Z" transform="translate(-6.864 -2.043)"/><path class="cls-1" d="M6.864,33.225V15.09h9.113a5.575,5.575,0,0,1,3.845,1.272,4.753,4.753,0,0,1,1.442,3.75,4.181,4.181,0,0,1-.444,1.919,4.508,4.508,0,0,1-.887,1.284,4.073,4.073,0,0,1,1.5,1.585,5.39,5.39,0,0,1,.647,2.7,5.715,5.715,0,0,1-1.479,4.04,4.964,4.964,0,0,1-3.807,1.584ZM17.179,21.607a1.367,1.367,0,0,0,.462-1.127,1.32,1.32,0,0,0-.5-1.138,1.907,1.907,0,0,0-1.165-.369h-5.49v3h5.49A1.851,1.851,0,0,0,17.179,21.607ZM18.454,27.6a1.867,1.867,0,0,0-.231-1.016,1.369,1.369,0,0,0-.6-.558,2.068,2.068,0,0,0-.831-.168h-6.3v3.483h6.3Q18.454,29.342,18.454,27.6Z" transform="translate(-6.864 -2.043)"/><path class="cls-1" d="M28.4,33.237a7.745,7.745,0,0,1-2.671-1.518,7.3,7.3,0,0,1-1.867-2.668,9.973,9.973,0,0,1-.693-3.906V15.09h3.623V25.145a3.966,3.966,0,0,0,.656,2.322,4.08,4.08,0,0,0,1.738,1.395,5.527,5.527,0,0,0,2.3.48,5.9,5.9,0,0,0,2.311-.458A4.112,4.112,0,0,0,35.535,27.5a4.026,4.026,0,0,0,.656-2.355V15.09h3.623V25.145a9.973,9.973,0,0,1-.693,3.906,7.323,7.323,0,0,1-1.876,2.668,7.715,7.715,0,0,1-2.662,1.518,10.216,10.216,0,0,1-6.183,0Z" transform="translate(-6.864 -2.043)"/><path class="cls-1" d="M45.1,33.225a9.325,9.325,0,0,1-2.514-1.261,8.007,8.007,0,0,1-1.867-1.875l2.273-3.024a7.855,7.855,0,0,0,1.211,1.261,7.064,7.064,0,0,0,1.719,1.049,5.453,5.453,0,0,0,2.265.458,5.029,5.029,0,0,0,2.135-.436,4.305,4.305,0,0,0,1.451-.982,1.609,1.609,0,0,0,.517-.982.807.807,0,0,0-.434-.736,3.513,3.513,0,0,0-1.248-.369c-.545-.078-1.155-.145-1.839-.19-.656-.044-1.331-.1-2.024-.189a12.41,12.41,0,0,1-2.024-.435,5.829,5.829,0,0,1-1.775-.9,4.141,4.141,0,0,1-1.275-1.619,5.84,5.84,0,0,1-.481-2.544,5.228,5.228,0,0,1,.86-2.869,6.234,6.234,0,0,1,2.421-2.154,8,8,0,0,1,3.734-.825,9.229,9.229,0,0,1,2.948.435A8.269,8.269,0,0,1,53.411,16.2a8.92,8.92,0,0,1,1.765,1.729l-2.311,2.791a9.483,9.483,0,0,0-1.247-1.161,4.866,4.866,0,0,0-1.4-.759,5.6,5.6,0,0,0-1.959-.29,5.174,5.174,0,0,0-2.616.647c-.767.435-1.146.871-1.146,1.295a1.016,1.016,0,0,0,.49.892,4,4,0,0,0,1.405.492c.6.111,1.275.2,2.014.279.814.089,1.646.2,2.477.357a9.278,9.278,0,0,1,2.339.747A4.5,4.5,0,0,1,55,24.743a4.653,4.653,0,0,1,.684,2.69,5.777,5.777,0,0,1-.887,3.092,6.566,6.566,0,0,1-2.569,2.321,8.638,8.638,0,0,1-4.021.87A9.58,9.58,0,0,1,45.1,33.225Z" transform="translate(-6.864 -2.043)"/><path class="cls-1" d="M56.785,33.225V15.09h3.623V33.225Z" transform="translate(-6.864 -2.043)"/><path class="cls-1" d="M74,33.225,65.122,20.558V33.225H61.5V15.09h4.132l8.891,12.667V15.09h3.623V33.225Z" transform="translate(-6.864 -2.043)"/><path class="cls-1" d="M79.236,33.225V15.09H92.629v3.883h-9.77v3.248H91v3.884H82.859v3.237h9.77v3.883Z" transform="translate(-6.864 -2.043)"/><path class="cls-1" d="M98.1,33.225a9.325,9.325,0,0,1-2.514-1.261,8.027,8.027,0,0,1-1.867-1.875l2.274-3.024a7.8,7.8,0,0,0,1.21,1.261,7.071,7.071,0,0,0,1.72,1.049,5.445,5.445,0,0,0,2.264.458,5.026,5.026,0,0,0,2.135-.436,4.305,4.305,0,0,0,1.451-.982,1.612,1.612,0,0,0,.518-.982.806.806,0,0,0-.435-.736,3.5,3.5,0,0,0-1.248-.369c-.545-.078-1.155-.145-1.839-.19-.656-.044-1.331-.1-2.024-.189a12.41,12.41,0,0,1-2.024-.435,5.84,5.84,0,0,1-1.775-.9,4.141,4.141,0,0,1-1.275-1.619,5.855,5.855,0,0,1-.481-2.544,5.228,5.228,0,0,1,.86-2.869,6.234,6.234,0,0,1,2.421-2.154,8,8,0,0,1,3.734-.825,9.239,9.239,0,0,1,2.949.435A8.277,8.277,0,0,1,106.41,16.2a8.92,8.92,0,0,1,1.765,1.729l-2.31,2.791a9.486,9.486,0,0,0-1.248-1.161,4.866,4.866,0,0,0-1.4-.759,5.6,5.6,0,0,0-1.959-.29,5.174,5.174,0,0,0-2.616.647c-.767.435-1.146.871-1.146,1.295a1.018,1.018,0,0,0,.49.892,4,4,0,0,0,1.405.492c.6.111,1.275.2,2.015.279.813.089,1.645.2,2.477.357a9.27,9.27,0,0,1,2.338.747A4.5,4.5,0,0,1,108,24.743a4.653,4.653,0,0,1,.684,2.69,5.778,5.778,0,0,1-.888,3.092,6.559,6.559,0,0,1-2.569,2.321,8.635,8.635,0,0,1-4.021.87A9.58,9.58,0,0,1,98.1,33.225Z" transform="translate(-6.864 -2.043)"/><path class="cls-1" d="M113.98,33.225a9.325,9.325,0,0,1-2.514-1.261,8.027,8.027,0,0,1-1.867-1.875l2.274-3.024a7.812,7.812,0,0,0,1.211,1.261,7.045,7.045,0,0,0,1.719,1.049,5.445,5.445,0,0,0,2.264.458A5.022,5.022,0,0,0,119.2,29.4a4.305,4.305,0,0,0,1.451-.982,1.612,1.612,0,0,0,.518-.982.806.806,0,0,0-.435-.736,3.5,3.5,0,0,0-1.247-.369c-.546-.078-1.156-.145-1.84-.19-.656-.044-1.331-.1-2.024-.189a12.41,12.41,0,0,1-2.024-.435,5.823,5.823,0,0,1-1.774-.9,4.143,4.143,0,0,1-1.276-1.619,5.856,5.856,0,0,1-.48-2.544,5.226,5.226,0,0,1,.859-2.869,6.23,6.23,0,0,1,2.422-2.154,8,8,0,0,1,3.734-.825,9.237,9.237,0,0,1,2.948.435,8.277,8.277,0,0,1,2.255,1.161,8.92,8.92,0,0,1,1.765,1.729l-2.31,2.791a9.424,9.424,0,0,0-1.248-1.161,4.84,4.84,0,0,0-1.4-.759,5.6,5.6,0,0,0-1.959-.29,5.174,5.174,0,0,0-2.616.647c-.767.435-1.146.871-1.146,1.295a1.018,1.018,0,0,0,.49.892,4,4,0,0,0,1.405.492c.6.111,1.276.2,2.015.279.813.089,1.645.2,2.477.357a9.27,9.27,0,0,1,2.338.747,4.5,4.5,0,0,1,1.775,1.529,4.653,4.653,0,0,1,.684,2.69,5.778,5.778,0,0,1-.888,3.092,6.559,6.559,0,0,1-2.569,2.321,8.631,8.631,0,0,1-4.02.87A9.581,9.581,0,0,1,113.98,33.225Z" transform="translate(-6.864 -2.043)"/></svg>